<svg width="183" height="182" viewBox="0 0 183 182" fill="none" xmlns="http://www.w3.org/2000/svg">
<rect width="182.417" height="181.25" rx="20" fill="#1C1C1C"/>
<path d="M49.9524 99.6608C47.7962 98.4841 45.1667 100.045 45.1667 102.501V120.295C45.1667 121.479 45.8132 122.569 46.8524 123.136L87.6583 145.404C88.6244 145.931 89.7922 145.931 90.7583 145.404L131.564 123.136C132.603 122.569 133.25 121.479 133.25 120.295V102.501C133.25 100.045 130.621 98.4841 128.464 99.6608L90.7583 120.237C89.7922 120.765 88.6244 120.765 87.6583 120.237L49.9524 99.6608ZM90.7578 33.8451C89.792 33.3184 88.6247 33.3183 87.6589 33.8451L25.2078 67.9094C22.9594 69.1358 22.9594 72.3642 25.2078 73.5906L87.6588 107.655C88.6246 108.182 89.792 108.182 90.7578 107.655L141.048 80.2186C143.204 79.0423 145.833 80.6029 145.833 83.0591V117.848C145.833 119.635 147.282 121.083 149.069 121.083H155.181C156.968 121.083 158.417 119.635 158.417 117.848V72.6708C158.417 71.4867 157.77 70.3972 156.73 69.8302L90.7578 33.8451Z" fill="#767BFF"/>
</svg>
