<svg width="151" height="151" viewBox="0 0 151 151" fill="none" xmlns="http://www.w3.org/2000/svg">
<g id="ic:baseline-school">
<path id="Vector" d="M35.9524 85.5358C33.7962 84.3591 31.1667 85.9197 31.1667 88.3761V106.17C31.1667 107.354 31.8132 108.444 32.8524 109.011L73.6583 131.279C74.6244 131.806 75.7922 131.806 76.7583 131.279L117.564 109.011C118.603 108.444 119.25 107.354 119.25 106.17V88.3761C119.25 85.9197 116.621 84.3591 114.464 85.5358L76.7583 106.112C75.7922 106.64 74.6244 106.64 73.6583 106.112L35.9524 85.5358ZM76.7578 19.7201C75.792 19.1934 74.6247 19.1933 73.6589 19.7201L11.2078 53.7844C8.95942 55.0108 8.95942 58.2392 11.2078 59.4656L73.6588 93.5298C74.6246 94.0566 75.792 94.0566 76.7578 93.5297L127.048 66.0936C129.204 64.9173 131.833 66.4779 131.833 68.9341V103.723C131.833 105.51 133.282 106.958 135.069 106.958H141.181C142.968 106.958 144.417 105.51 144.417 103.723V58.5458C144.417 57.3617 143.77 56.2722 142.73 55.7052L76.7578 19.7201Z" fill="#767BFF"/>
</g>
</svg>
