<svg xmlns="http://www.w3.org/2000/svg" viewBox="0 0 432.51 350.54"><defs><style>.cls-1{fill:#f5f5ff;}.cls-2{fill:#7b70ee;}.cls-3{fill:#d5cbfb;}.cls-4{fill:#1c1c84;}.cls-5{fill:#2525ad;}.cls-6{fill:#f0c64b;}.cls-7{fill:#d8a32b;}.cls-8{fill:#0c0c5b;}.cls-9{fill:#fff6dc;}.cls-10{fill:#fff;}.cls-11{fill:#f4e7bd;}.cls-12,.cls-13{fill:none;stroke-miterlimit:10;}.cls-12{stroke:#7b70ee;stroke-width:2.15px;}.cls-13{stroke:#2525ad;stroke-width:1.9px;}</style></defs><g id="Layer_2" data-name="Layer 2"><g id="Objects"><path class="cls-1" d="M15.23,183c20.3,23,46,31.91,58.66,59.82,8.68,19.14,4.6,41.79,11,61.8,8.79,27.43,37.69,45.85,66.49,46s56.25-16.22,73.34-39.4c5.61-7.6,10.47-16.15,18.32-21.4,11.26-7.5,25.85-6.54,39.33-7.74a113.85,113.85,0,0,0,83.25-49.33s48.12-56.78,14.06-138c-9.91-23.61-26-45.3-48.09-58.16S271,23.32,248.17,35c-24.23,12.4-40.34,39.59-66.9,45.56-15.39,3.46-31.29-1-46.79-4-21.74-4.13-43.91-6.69-65.87-3.9C42.77,76,16.7,88.91,4.65,118a60.55,60.55,0,0,0-4,32.31C2.2,160.14,6,172.54,15.23,183Z"/><path class="cls-1" d="M214.94,15.2c-5.58-7-14.29-10.84-23-13-12-3-24.92-3.2-36.57,1s-21.86,13.05-26.16,24.65-1.93,25.78,7,34.37a27.47,27.47,0,0,0,18.91,7.37,26,26,0,0,0,12.11-1.5c8.55-3.3,14.83-10.77,23-14.87,8.91-4.44,20.37-5.15,26.4-13.07C222.08,33,220.53,22.22,214.94,15.2Z"/><path class="cls-1" d="M54.28,263.73a33.81,33.81,0,0,1-2.36-5.87c-1.81-6.54-.5-14-4-19.81-4.41-7.29-15.27-8.63-22.66-4.38s-11.62,12.55-13.42,20.88c-1.11,5.13-1.43,10.6.32,15.54,2,5.75,6.7,10.22,11.77,13.62,5.63,3.78,12.21,6.55,19,6.32a20.42,20.42,0,0,0,8.74-2.31,12.58,12.58,0,0,0,5.3-4.18,14.68,14.68,0,0,0,2.31-3.72C61.68,274.16,59.51,266.7,54.28,263.73Z"/><rect class="cls-2" x="106.15" y="120.16" width="218.97" height="143.09" rx="3.61"/><rect class="cls-3" x="111.57" y="130.57" width="208.13" height="118.81"/><path class="cls-3" d="M216.94,124.94a1.31,1.31,0,1,1-1.31-1.31A1.31,1.31,0,0,1,216.94,124.94Z"/><path class="cls-3" d="M354.59,309.94l-26.9-42.81a8.31,8.31,0,0,0-7-3.88H110.6a8.32,8.32,0,0,0-7,3.88L76.68,309.94a5.75,5.75,0,0,0-.79,4H355.38A5.75,5.75,0,0,0,354.59,309.94Z"/><path class="cls-2" d="M75.89,314a5,5,0,0,0,.2.85l.42,1.27A5.78,5.78,0,0,0,82,320.05H349.27a5.78,5.78,0,0,0,5.48-3.95l.42-1.27a5,5,0,0,0,.21-.85Z"/><polygon class="cls-2" points="120.72 284.37 122.03 281.49 115.55 281.49 114.16 284.37 120.72 284.37"/><polygon class="cls-2" points="132.14 276.17 132.78 274.67 133.37 273.29 127.1 273.29 125.79 276.17 132.14 276.17"/><polygon class="cls-2" points="123.37 281.49 122.06 284.37 128.63 284.37 129.86 281.49 123.37 281.49"/><polygon class="cls-2" points="122.58 280.27 123.89 277.39 117.52 277.39 116.14 280.27 122.58 280.27"/><polygon class="cls-2" points="254.54 273.29 255.26 276.17 260.84 276.17 260.03 273.29 254.54 273.29"/><polygon class="cls-2" points="154.54 281.49 153.66 284.37 160.29 284.37 161.13 281.49 154.54 281.49"/><polygon class="cls-2" points="146.79 281.49 145.76 284.37 152.39 284.37 153.27 281.49 146.79 281.49"/><polygon class="cls-2" points="139.01 281.49 137.85 284.37 144.46 284.37 145.5 281.49 139.01 281.49"/><polygon class="cls-2" points="131.19 281.49 129.96 284.37 136.54 284.37 137.69 281.49 131.19 281.49"/><polygon class="cls-2" points="261.3 273.29 262.1 276.17 267.31 276.17 266.47 273.29 261.3 273.29"/><polygon class="cls-2" points="176.95 277.39 176.23 280.27 181.47 280.27 182.12 277.39 176.95 277.39"/><polygon class="cls-2" points="233.8 273.29 234.29 276.17 240.34 276.17 239.77 273.29 233.8 273.29"/><polygon class="cls-2" points="176 276.17 176.73 273.29 171.23 273.29 170.43 276.17 176 276.17"/><polygon class="cls-2" points="169.16 276.17 169.97 273.29 164.8 273.29 163.96 276.17 169.16 276.17"/><polygon class="cls-2" points="182.39 276.17 183.04 273.29 177.98 273.29 177.26 276.17 182.39 276.17"/><polygon class="cls-2" points="267.74 273.29 268.58 276.17 275.1 276.17 274.21 273.29 267.74 273.29"/><polygon class="cls-2" points="149.75 273.29 148.71 276.17 154.9 276.17 155.35 274.69 155.78 273.29 149.75 273.29"/><polygon class="cls-2" points="147.41 276.17 148.45 273.29 142.29 273.29 141.14 276.17 147.41 276.17"/><polygon class="cls-2" points="134.69 273.29 133.46 276.17 139.83 276.17 140.43 274.67 140.98 273.29 134.69 273.29"/><polygon class="cls-2" points="248.23 273.29 248.88 276.17 254 276.17 253.28 273.29 248.23 273.29"/><polygon class="cls-2" points="241.01 273.29 241.58 276.17 247.63 276.17 246.98 273.29 241.01 273.29"/><polygon class="cls-2" points="162.69 276.17 163.53 273.29 157.05 273.29 156.17 276.17 162.69 276.17"/><polygon class="cls-2" points="170.31 272.07 171.05 269.39 165.94 269.39 165.15 272.07 170.31 272.07"/><polygon class="cls-2" points="163.88 272.07 164.67 269.39 158.25 269.39 157.42 272.07 163.88 272.07"/><polygon class="cls-2" points="226.68 273.29 227.02 276.17 233.06 276.17 232.57 273.29 226.68 273.29"/><polygon class="cls-2" points="190.49 272.07 191.02 269.39 185.16 269.39 184.56 272.07 190.49 272.07"/><polygon class="cls-2" points="183.31 272.07 183.91 269.39 178.97 269.39 178.29 272.07 183.31 272.07"/><polygon class="cls-2" points="177.03 272.07 177.71 269.39 172.32 269.39 171.57 272.07 177.03 272.07"/><polygon class="cls-2" points="297.9 273.29 299.13 276.17 305.48 276.17 304.17 273.29 297.9 273.29"/><polygon class="cls-2" points="133.89 272.07 135.04 269.39 128.87 269.39 127.65 272.07 133.89 272.07"/><polygon class="cls-2" points="141.47 272.07 142.54 269.39 136.36 269.39 135.22 272.07 141.47 272.07"/><polygon class="cls-2" points="156.15 272.07 156.97 269.39 151.15 269.39 150.18 272.07 156.15 272.07"/><polygon class="cls-2" points="305.51 273.29 306.82 276.17 313.15 276.17 311.77 273.29 305.51 273.29"/><polygon class="cls-2" points="148.89 272.07 149.85 269.39 143.86 269.39 142.78 272.07 148.89 272.07"/><polygon class="cls-2" points="275.49 273.29 276.37 276.17 282.56 276.17 281.52 273.29 275.49 273.29"/><polygon class="cls-2" points="189.87 281.49 189.3 284.37 195.57 284.37 196.06 281.49 189.87 281.49"/><polygon class="cls-2" points="162.4 281.49 161.56 284.37 166.88 284.37 167.68 281.49 162.4 281.49"/><polygon class="cls-2" points="182.44 281.49 181.8 284.37 188.06 284.37 188.63 281.49 182.44 281.49"/><polygon class="cls-2" points="168.95 281.49 168.14 284.37 173.94 284.37 174.66 281.49 168.95 281.49"/><polygon class="cls-2" points="175.92 281.49 175.2 284.37 180.55 284.37 181.19 281.49 175.92 281.49"/><polygon class="cls-2" points="198.7 273.29 198.21 276.17 204.25 276.17 204.58 273.29 198.7 273.29"/><polygon class="cls-2" points="197.67 272.07 198.13 269.39 192.26 269.39 191.73 272.07 197.67 272.07"/><polygon class="cls-2" points="190.68 277.39 190.11 280.27 196.27 280.27 196.76 277.39 190.68 277.39"/><polygon class="cls-2" points="290.29 273.29 291.44 276.17 297.8 276.17 296.57 273.29 290.29 273.29"/><polygon class="cls-2" points="203.77 280.27 204.1 277.39 198 277.39 197.51 280.27 203.77 280.27"/><polygon class="cls-2" points="282.81 273.29 283.85 276.17 290.13 276.17 288.97 273.29 282.81 273.29"/><polygon class="cls-2" points="124.45 276.17 125.76 273.29 119.5 273.29 118.11 276.17 124.45 276.17"/><polygon class="cls-2" points="263.12 284.37 262.32 281.49 256.6 281.49 257.33 284.37 263.12 284.37"/><polygon class="cls-2" points="170.09 277.39 169.29 280.27 174.97 280.27 175.69 277.39 170.09 277.39"/><polygon class="cls-2" points="273.84 272.07 273.02 269.39 266.6 269.39 267.38 272.07 273.84 272.07"/><polygon class="cls-2" points="288.48 272.07 287.41 269.39 281.41 269.39 282.38 272.07 288.48 272.07"/><polygon class="cls-2" points="281.08 272.07 280.12 269.39 274.3 269.39 275.12 272.07 281.08 272.07"/><polygon class="cls-2" points="246.7 272.07 246.1 269.39 240.25 269.39 240.77 272.07 246.7 272.07"/><polygon class="cls-2" points="239.53 272.07 239 269.39 233.14 269.39 233.6 272.07 239.53 272.07"/><polygon class="cls-2" points="296.05 272.07 294.9 269.39 288.72 269.39 289.8 272.07 296.05 272.07"/><polygon class="cls-2" points="259.69 272.07 258.95 269.39 253.56 269.39 254.23 272.07 259.69 272.07"/><polygon class="cls-2" points="252.97 272.07 252.3 269.39 247.35 269.39 247.95 272.07 252.97 272.07"/><polygon class="cls-2" points="256.07 284.37 255.34 281.49 250.07 281.49 250.72 284.37 256.07 284.37"/><polygon class="cls-2" points="301.31 284.37 300.08 281.49 293.57 281.49 294.72 284.37 301.31 284.37"/><polygon class="cls-2" points="285.51 284.37 284.47 281.49 278 281.49 278.88 284.37 285.51 284.37"/><polygon class="cls-2" points="317.1 284.37 315.71 281.49 309.24 281.49 310.55 284.37 317.1 284.37"/><polygon class="cls-2" points="309.21 284.37 307.9 281.49 301.4 281.49 302.63 284.37 309.21 284.37"/><polygon class="cls-2" points="293.41 284.37 292.25 281.49 285.77 281.49 286.8 284.37 293.41 284.37"/><polygon class="cls-2" points="249.47 284.37 248.82 281.49 242.64 281.49 243.21 284.37 249.47 284.37"/><polygon class="cls-2" points="303.61 272.07 302.39 269.39 296.23 269.39 297.37 272.07 303.61 272.07"/><polygon class="cls-2" points="314.51 276.17 320.36 276.17 318.73 273.29 313.12 273.29 314.51 276.17"/><polygon class="cls-2" points="269.71 284.37 268.86 281.49 263.58 281.49 264.39 284.37 269.71 284.37"/><polygon class="cls-2" points="311.18 272.07 309.89 269.39 303.73 269.39 304.95 272.07 311.18 272.07"/><polygon class="cls-2" points="277.6 284.37 276.72 281.49 270.13 281.49 270.98 284.37 277.6 284.37"/><polygon class="cls-2" points="318.04 272.07 316.52 269.39 311.24 269.39 312.53 272.07 318.04 272.07"/><polygon class="cls-2" points="266.11 272.07 265.33 269.39 260.21 269.39 260.96 272.07 266.11 272.07"/><polygon class="cls-2" points="226.75 284.37 226.41 281.49 220.09 281.49 220.21 284.37 226.75 284.37"/><polygon class="cls-2" points="132.94 277.39 132.3 278.89 131.71 280.27 138.18 280.27 139.34 277.39 132.94 277.39"/><polygon class="cls-2" points="233.76 280.27 233.27 277.39 227.16 277.39 227.5 280.27 233.76 280.27"/><polygon class="cls-2" points="130.38 280.27 131.62 277.39 125.23 277.39 124.55 278.9 123.92 280.27 130.38 280.27"/><polygon class="cls-2" points="184.29 273.29 183.64 276.17 189.68 276.17 190.25 273.29 184.29 273.29"/><polygon class="cls-2" points="191.49 273.29 190.92 276.17 196.97 276.17 197.46 273.29 191.49 273.29"/><polygon class="cls-2" points="155.8 277.39 154.92 280.27 161.49 280.27 162.33 277.39 155.8 277.39"/><polygon class="cls-2" points="140.65 277.39 139.5 280.27 145.94 280.27 146.97 277.39 140.65 277.39"/><polygon class="cls-2" points="163.6 277.39 162.76 280.27 168.02 280.27 168.82 277.39 163.6 277.39"/><polygon class="cls-2" points="219.92 277.39 220.04 280.27 226.27 280.27 225.93 277.39 219.92 277.39"/><polygon class="cls-2" points="148.27 277.39 147.23 280.27 153.64 280.27 154.52 277.39 148.27 277.39"/><polygon class="cls-2" points="225.31 272.07 225 269.39 219.6 269.39 219.71 272.07 225.31 272.07"/><polygon class="cls-2" points="241.96 284.37 241.39 281.49 235.2 281.49 235.69 284.37 241.96 284.37"/><polygon class="cls-2" points="212.88 269.39 212.78 272.07 218.49 272.07 218.38 269.39 212.88 269.39"/><polygon class="cls-2" points="212.73 273.29 212.61 276.17 218.65 276.17 218.54 273.29 212.73 273.29"/><polygon class="cls-2" points="225.79 276.17 225.46 273.29 219.76 273.29 219.87 276.17 225.79 276.17"/><polygon class="cls-2" points="232.36 272.07 231.9 269.39 226.23 269.39 226.54 272.07 232.36 272.07"/><polygon class="cls-2" points="212.56 277.39 212.44 280.27 218.82 280.27 218.7 277.39 212.56 277.39"/><polygon class="cls-2" points="212.4 281.49 212.28 284.37 218.98 284.37 218.87 281.49 212.4 281.49"/><polygon class="cls-2" points="211.56 272.07 211.66 269.39 206.26 269.39 205.95 272.07 211.56 272.07"/><polygon class="cls-2" points="198.91 272.07 204.72 272.07 205.03 269.39 199.36 269.39 198.91 272.07"/><polygon class="cls-2" points="241.15 280.27 240.58 277.39 234.5 277.39 234.99 280.27 241.15 280.27"/><polygon class="cls-2" points="183.37 277.39 182.72 280.27 188.87 280.27 189.44 277.39 183.37 277.39"/><polygon class="cls-2" points="105.58 285.59 104.16 288.11 111.01 288.11 112.22 285.59 105.58 285.59"/><polygon class="cls-2" points="268.51 280.27 267.67 277.39 262.44 277.39 263.25 280.27 268.51 280.27"/><polygon class="cls-2" points="264.73 285.59 265.43 288.11 270.8 288.11 270.06 285.59 264.73 285.59"/><polygon class="cls-2" points="255.04 280.27 254.31 277.39 249.15 277.39 249.8 280.27 255.04 280.27"/><polygon class="cls-2" points="211.06 284.37 211.18 281.49 204.85 281.49 204.52 284.37 211.06 284.37"/><polygon class="cls-2" points="287.24 285.59 288.15 288.11 294.91 288.11 293.9 285.59 287.24 285.59"/><polygon class="cls-2" points="307.34 280.27 306.03 277.39 299.65 277.39 300.88 280.27 307.34 280.27"/><polygon class="cls-2" points="295.21 285.59 296.22 288.11 302.91 288.11 301.83 285.59 295.21 285.59"/><polygon class="cls-2" points="197.3 281.49 196.81 284.37 203.29 284.37 203.63 281.49 197.3 281.49"/><polygon class="cls-2" points="107.9 281.49 106.27 284.37 112.81 284.37 114.19 281.49 107.9 281.49"/><polygon class="cls-2" points="228.11 285.59 228.41 288.11 235.09 288.11 234.66 285.59 228.11 285.59"/><polygon class="cls-2" points="129.44 285.59 128.36 288.11 135.04 288.11 136.05 285.59 129.44 285.59"/><polygon class="cls-2" points="211.01 285.59 204.38 285.59 204.09 288.11 210.91 288.11 211.01 285.59"/><polygon class="cls-2" points="299.55 280.27 298.32 277.39 291.93 277.39 293.08 280.27 299.55 280.27"/><polygon class="cls-2" points="113.57 285.59 112.36 288.11 119.02 288.11 120.17 285.59 113.57 285.59"/><polygon class="cls-2" points="241.82 277.39 242.4 280.27 248.55 280.27 247.9 277.39 241.82 277.39"/><polygon class="cls-2" points="271.33 285.59 272.07 288.11 278.75 288.11 277.97 285.59 271.33 285.59"/><polygon class="cls-2" points="243.45 285.59 243.94 288.11 250.31 288.11 249.74 285.59 243.45 285.59"/><polygon class="cls-2" points="276.35 280.27 275.47 277.39 268.94 277.39 269.78 280.27 276.35 280.27"/><polygon class="cls-2" points="284.03 280.27 283 277.39 276.74 277.39 277.62 280.27 284.03 280.27"/><polygon class="cls-2" points="235.9 285.59 236.33 288.11 242.7 288.11 242.2 285.59 235.9 285.59"/><polygon class="cls-2" points="279.25 285.59 280.02 288.11 286.85 288.11 285.95 285.59 279.25 285.59"/><polygon class="cls-2" points="112.54 273.29 110.91 276.17 116.76 276.17 118.14 273.29 112.54 273.29"/><polygon class="cls-2" points="311.1 285.59 312.25 288.11 318.9 288.11 317.69 285.59 311.1 285.59"/><polygon class="cls-2" points="114.74 269.39 113.23 272.07 118.73 272.07 120.02 269.39 114.74 269.39"/><polygon class="cls-2" points="291.77 280.27 290.61 277.39 284.29 277.39 285.33 280.27 291.77 280.27"/><polygon class="cls-2" points="194.94 288.11 195.36 285.59 137.37 285.59 136.36 288.11 194.94 288.11"/><polygon class="cls-2" points="250.99 285.59 251.56 288.11 257.01 288.11 256.38 285.59 250.99 285.59"/><polygon class="cls-2" points="205.47 276.17 211.39 276.17 211.51 273.29 205.81 273.29 205.47 276.17"/><polygon class="cls-2" points="323.36 281.49 317.07 281.49 320.26 288.11 327.11 288.11 323.36 281.49"/><polygon class="cls-2" points="316.48 280.27 322.67 280.27 321.04 277.39 315.1 277.39 316.48 280.27"/><polygon class="cls-2" points="315.13 280.27 313.74 277.39 307.37 277.39 308.68 280.27 315.13 280.27"/><polygon class="cls-2" points="202.86 288.11 203.15 285.59 196.6 285.59 196.17 288.11 202.86 288.11"/><polygon class="cls-2" points="212.23 285.59 212.13 288.11 227.18 288.11 226.89 285.59 212.23 285.59"/><polygon class="cls-2" points="303.16 285.59 304.23 288.11 310.91 288.11 309.76 285.59 303.16 285.59"/><polygon class="cls-2" points="261.98 280.27 261.18 277.39 255.57 277.39 256.3 280.27 261.98 280.27"/><polygon class="cls-2" points="257.63 285.59 258.27 288.11 264.17 288.11 263.46 285.59 257.63 285.59"/><polygon class="cls-2" points="110.22 277.39 108.59 280.27 114.78 280.27 116.17 277.39 110.22 277.39"/><polygon class="cls-2" points="126.31 272.07 127.53 269.39 121.38 269.39 120.09 272.07 126.31 272.07"/><polygon class="cls-2" points="121.5 285.59 120.36 288.11 127.03 288.11 128.11 285.59 121.5 285.59"/><polygon class="cls-2" points="211.22 280.27 211.34 277.39 205.33 277.39 205 280.27 211.22 280.27"/><polygon class="cls-2" points="233.97 281.49 227.64 281.49 227.97 284.37 234.46 284.37 233.97 281.49"/><path class="cls-2" d="M253.84,309.59H177.42a1,1,0,0,1-1-1.31l4.85-15.79a1,1,0,0,1,1-.71H249a1,1,0,0,1,1,.71l4.86,15.79a1,1,0,0,1-1,1.31Zm-71.56-16.91a.1.1,0,0,0-.1.08l-4.86,15.79a.09.09,0,0,0,0,.09.1.1,0,0,0,.08.05h76.42a.11.11,0,0,0,.09-.05.09.09,0,0,0,0-.09l-4.85-15.79a.12.12,0,0,0-.11-.08Z"/><polygon class="cls-4" points="252.74 148.78 169.73 161.87 249.54 201.8 332.21 189.5 252.74 148.78"/><polygon class="cls-5" points="169.73 161.87 169.73 163.76 249.6 205.5 332.21 191.32 332.21 189.5 249.54 201.8 169.73 161.87"/><path class="cls-5" d="M200.61,206.79l-1.27,8.44s34.08,27.37,82.14,13.91l.74-6.59C239.74,229.66,213,215.89,200.61,206.79Z"/><path class="cls-6" d="M301.81,251.23a27.51,27.51,0,0,1-9.1-14.21c-.11-.4-.66-.26-.72.09a12,12,0,0,0-1.18-.14c-3.05,5.92-.69,12.59,1.35,18.44.16.46.67.22.5-.25-1.59-4.57-3.3-9.7-2.33-14.52a25,25,0,0,0,5.21,17.18c.27.35.69-.07.42-.42A24.32,24.32,0,0,1,291,241.89a23.66,23.66,0,0,0,1.14,6.42,42.21,42.21,0,0,0,4.65,8.94c.26.42.68,0,.41-.42a42.06,42.06,0,0,1-4.27-8.57,20.93,20.93,0,0,1-1-4,26.94,26.94,0,0,0,6.25,12c.33.35.76,0,.43-.33a26.33,26.33,0,0,1-6.24-13.35A34.66,34.66,0,0,0,299,255.21c.3.38.62,0,.31-.41a33.51,33.51,0,0,1-6.11-12.37c1.64,4.62,3.77,9.07,7.52,12.36.37.32.77,0,.4-.38a24,24,0,0,1-5.66-8.36,38.59,38.59,0,0,0,5.41,7.43c.33.36.61-.21.28-.56a37.15,37.15,0,0,1-4.63-6.51,27.51,27.51,0,0,0,4.91,5.09C301.78,251.8,302.19,251.53,301.81,251.23Z"/><path class="cls-6" d="M294,187.33a18.8,18.8,0,0,0-6.48-4.6c-4.76-2.31-10.06-3.32-15.23-4.3-7.31-1.38-14.78-2.66-20.85-7.26a.4.4,0,0,0-.6.09s0,0,0,0h0a.47.47,0,0,0,0,.65c4.46,4.26,10.41,6.36,16.27,7.85s12,2.52,17.63,4.87l.53.22.22.1.86.43a22.77,22.77,0,0,1,3.07,1.76,10.56,10.56,0,0,1,3,3,7.88,7.88,0,0,1,1.07,4.38,33.83,33.83,0,0,1-.59,4.8c-.27,1.64-.52,3.29-.77,4.94-.52,3.41-1,6.82-1.38,10.24a79.77,79.77,0,0,0,.33,22.73c.1.56,1,.43,1-.13a99.14,99.14,0,0,1,1.05-21.29c.5-3.51,1.1-7,1.71-10.49.58-3.28,1.34-6.58,1.61-9.9A11,11,0,0,0,294,187.33Z"/><path class="cls-7" d="M290.66,237.86l.26-.12h0l.07,0,.12,0a3.75,3.75,0,0,1,.58-.13l.14,0h.62l.14,0h.07a.58.58,0,0,0,.39,0,.49.49,0,0,0,.24-.29.51.51,0,0,0-.33-.64,4.41,4.41,0,0,0-2.77.37.5.5,0,0,0-.21.68.52.52,0,0,0,.68.21Z"/><path class="cls-7" d="M290.56,236.87l.26-.12c.06,0,.05,0,0,0l.08,0,.12,0a3.75,3.75,0,0,1,.58-.13h.14c-.13,0,0,0,0,0h.28l.29,0h.22c-.07,0-.07,0,0,0a.53.53,0,0,0,.39,0,.51.51,0,0,0,.24-.3.5.5,0,0,0-.33-.63,4.34,4.34,0,0,0-2.77.36.5.5,0,1,0,.47.89Z"/><polygon class="cls-8" points="284.71 202.69 285.13 199.41 249.6 205.5 204.89 182.14 203.93 187.66 248.71 210.2 284.71 202.69"/><path class="cls-4" d="M248.71,210.2l-44.78-22.54-3.32,19.13c12.38,9.1,39.13,22.87,81.61,15.76l2.49-19.86Z"/><path class="cls-9" d="M194.43,236.16c2,5.34-2.28,11.85-9.52,14.53s-11.36-.7-14.26-5.6c-4.23-7.18-.15-11.05,7.09-13.73S192.44,230.82,194.43,236.16Z"/><path class="cls-10" d="M122.18,177.36s17.95,18.49,32.66,51.68c0,0,7,18,11.56,22.52,0,0-3.7-4.17,1.95-10.84A23,23,0,0,1,185,232.6c3.58-.13,7.33.62,9.46,3.63,0,0-23.94-28.21-39.59-52.54-6.25-9.73-9.21-17.76-10.51-23.9a11.75,11.75,0,0,0-3.53-2.55c-8.64-4.27-18.81,1.47-20.32,11a20.84,20.84,0,0,0-.25,2.84S120.13,175.29,122.18,177.36Z"/><path class="cls-11" d="M166.4,251.56s7.86,9.48,25.66-1.9c0,0,11-7.34,5.52-20.15a136.88,136.88,0,0,1-20.44-19.31,210.14,210.14,0,0,1-29.39-44.93l-2.36-1.42s1.7,9.22,12.7,24.75,31.3,41.54,31.3,41.54l3.11,3.74a7.84,7.84,0,0,1,1.41,7.71c-1.41,3.71-5.52,8.12-17,8.79l-7.18-11.14S162.77,245,166.4,251.56Z"/><path class="cls-10" d="M183.78,217.42s-20.62-21.51-35.08-55.55a66.76,66.76,0,0,0-4.27-6.06S157,194.66,183.78,217.42Z"/><path class="cls-6" d="M145.85,211.18a25.4,25.4,0,0,1,22.64-12.56c3.18.16,3.17-3.79,0-4-10.59-.53-21.08,4.76-26.22,14,0,0,2,5.27,3.58,2.49Z"/><rect class="cls-5" x="63.65" y="184.97" width="60" height="40.6" rx="9.76"/><polygon class="cls-3" points="87.21 205.27 87.21 197.83 93.65 201.55 100.09 205.27 93.65 208.99 87.21 212.71 87.21 205.27"/><path class="cls-10" d="M81.93,136a22.45,22.45,0,1,0-32,20.31v7.16H69v-7.16A22.43,22.43,0,0,0,81.93,136Z"/><path class="cls-6" d="M69.64,167.2H49.33a1.85,1.85,0,0,1-1.85-1.85h0a1.85,1.85,0,0,1,1.85-1.85H69.64a1.85,1.85,0,0,1,1.85,1.85h0A1.85,1.85,0,0,1,69.64,167.2Z"/><path class="cls-6" d="M52.06,169.05H66.9a0,0,0,0,1,0,0v1.23a7.42,7.42,0,0,1-7.42,7.42h0a7.42,7.42,0,0,1-7.42-7.42v-1.23a0,0,0,0,1,0,0Z"/><path class="cls-7" d="M69.64,170.9H49.33a1.85,1.85,0,0,1-1.85-1.85h0a1.85,1.85,0,0,1,1.85-1.85H69.64a1.85,1.85,0,0,1,1.85,1.85h0A1.85,1.85,0,0,1,69.64,170.9Z"/><path class="cls-6" d="M61.53,163.5H60.47V132.32a1,1,0,1,0-2,0V163.5H57.44V132.32a2,2,0,0,1,4.09,0Z"/><path class="cls-2" d="M24.21,128.38l-.62,3.21,9.38,1.8a28.29,28.29,0,0,1,.57-3.23Z"/><path class="cls-2" d="M31.64,113.58l-2,2.61,7.48,5.67a26.39,26.39,0,0,1,2-2.63Z"/><path class="cls-2" d="M44.75,103.59l-2.92,1.47L46,113.4A27.55,27.55,0,0,1,49,111.92Z"/><path class="cls-2" d="M95.38,131.59l-.62-3.21-9.34,1.78a26.27,26.27,0,0,1,.58,3.23Z"/><path class="cls-2" d="M89.31,116.19l-2-2.61-7.46,5.65a28,28,0,0,1,2,2.63Z"/><path class="cls-2" d="M77.14,105.06l-2.93-1.47L70,111.92a27.55,27.55,0,0,1,2.92,1.48Z"/><path class="cls-2" d="M61.16,109.82l-.08-9.49-3.28,0,.08,9.46c.53,0,1.07-.06,1.6-.06S60.6,109.79,61.16,109.82Z"/><rect class="cls-6" x="296.16" y="307.45" width="94.85" height="18.7"/><rect class="cls-7" x="301.5" y="307.45" width="3.82" height="18.7"/><rect class="cls-7" x="307.24" y="307.45" width="3.82" height="18.7"/><rect class="cls-7" x="376.12" y="307.45" width="3.82" height="18.7"/><rect class="cls-7" x="381.85" y="307.45" width="3.82" height="18.7"/><path class="cls-10" d="M400.14,297v-2.88a7.43,7.43,0,0,0-7.42-7.42H308.19v17.71h84.53A7.43,7.43,0,0,0,400.14,297Z"/><path class="cls-5" d="M392.72,283.62H307.64v3.11h85.08a7.43,7.43,0,0,1,7.42,7.42V297a7.43,7.43,0,0,1-7.42,7.41H307.64v3.12h85.08A10.55,10.55,0,0,0,403.26,297v-2.88A10.55,10.55,0,0,0,392.72,283.62Z"/><rect class="cls-1" x="308.19" y="290.7" width="86.19" height="1.42"/><rect class="cls-1" x="308.19" y="294.96" width="86.19" height="1.42"/><rect class="cls-1" x="308.19" y="299.23" width="86.19" height="1.42"/><path class="cls-10" d="M300.94,274.24v-2.59a6.68,6.68,0,0,1,6.68-6.67h76.12v15.94H307.62A6.69,6.69,0,0,1,300.94,274.24Z"/><path class="cls-6" d="M307.62,262.17h76.62V265H307.62a6.68,6.68,0,0,0-6.68,6.67v2.59a6.69,6.69,0,0,0,6.68,6.68h76.62v2.81H307.62a9.5,9.5,0,0,1-9.48-9.49v-2.59A9.49,9.49,0,0,1,307.62,262.17Z"/><rect class="cls-1" x="306.13" y="268.55" width="77.61" height="1.28" transform="translate(689.87 538.37) rotate(180)"/><rect class="cls-1" x="306.13" y="272.39" width="77.61" height="1.28" transform="translate(689.87 546.05) rotate(180)"/><rect class="cls-1" x="306.13" y="276.23" width="77.61" height="1.28" transform="translate(689.87 553.74) rotate(180)"/><path class="cls-6" d="M148,63.33h0a6.4,6.4,0,0,1,6.49,6.29v1a42.06,42.06,0,0,1,2.09,13.69A42.11,42.11,0,0,1,154.49,98v1A6.39,6.39,0,0,1,148,105.2h0c-4.74,0-8.59-9.37-8.59-20.93S143.26,63.33,148,63.33Z"/><path class="cls-7" d="M142.33,84.53c0,7.08.55,12.81,1.22,12.81s1.23-5.73,1.23-12.81-.55-12.8-1.23-12.8S142.33,77.46,142.33,84.53Z"/><path class="cls-2" d="M163.57,74.78V94.29c-.44,4.82-4.88,9.3-10.83,10.91V63.87C158.69,65.48,163.13,70,163.57,74.78Z"/><path class="cls-5" d="M152.74,107.44h0a1.74,1.74,0,0,0,1.76-1.7V63.33a1.74,1.74,0,0,0-1.76-1.7h0a1.74,1.74,0,0,0-1.76,1.7v42.41A1.74,1.74,0,0,0,152.74,107.44Z"/><path class="cls-6" d="M114.3,63.33h0a6.4,6.4,0,0,0-6.49,6.29v1a42,42,0,0,0-2.1,13.69A42.09,42.09,0,0,0,107.81,98v1a6.39,6.39,0,0,0,6.49,6.29h0c4.74,0,8.59-9.37,8.59-20.93S119,63.33,114.3,63.33Z"/><path class="cls-7" d="M120,84.53c0,7.08-.55,12.81-1.23,12.81s-1.22-5.73-1.22-12.81.55-12.8,1.22-12.8S120,77.46,120,84.53Z"/><path class="cls-2" d="M98.73,74.78V94.29c.44,4.82,4.88,9.3,10.83,10.91V63.87C103.61,65.48,99.17,70,98.73,74.78Z"/><path class="cls-5" d="M109.56,107.44h0a1.74,1.74,0,0,1-1.76-1.7V63.33a1.74,1.74,0,0,1,1.76-1.7h0a1.74,1.74,0,0,1,1.76,1.7v42.41A1.74,1.74,0,0,1,109.56,107.44Z"/><path class="cls-2" d="M152.9,37.53a31.84,31.84,0,0,0-12.51-5.82,39.21,39.21,0,0,0-13.78-.85c-1.39.16-2.77.38-4.13.67a12.32,12.32,0,0,0-2.83.76c-.91.43-1.8.9-2.69,1.35l-7.28,3.67a1.41,1.41,0,0,0,0,2.42A10.66,10.66,0,0,0,117,40.86a30.37,30.37,0,0,0,5.11-1.54,29.88,29.88,0,0,1,9.55-1.58,21.13,21.13,0,0,1,8.43,1.54c3.92,1.69,8.6,2.82,12.5.45A1.41,1.41,0,0,0,152.9,37.53Z"/><path class="cls-5" d="M131.76,29.3v0l-.61,0-.61,0v0A37.6,37.6,0,0,0,94.16,66.88V89.7a4.59,4.59,0,0,0,4.58,4.59V71.79l-.1-.58a33.86,33.86,0,0,1,6-26,30.19,30.19,0,0,1,10.89-9.06l.17-.08a35.35,35.35,0,0,1,30.9,0l.17.08a30.3,30.3,0,0,1,10.93,9.12,33.76,33.76,0,0,1,6,25.95l-.1.58v22.5a4.59,4.59,0,0,0,4.59-4.59V66.88A37.6,37.6,0,0,0,131.76,29.3Z"/><rect class="cls-3" x="349.51" y="111.09" width="59.67" height="86.29"/><rect class="cls-2" x="355.95" y="123.75" width="46.79" height="1.91"/><rect class="cls-2" x="355.95" y="132.51" width="46.79" height="1.91"/><rect class="cls-2" x="355.95" y="141.28" width="46.79" height="1.91"/><rect class="cls-2" x="355.95" y="150.05" width="46.79" height="1.91"/><rect class="cls-2" x="355.95" y="158.82" width="46.79" height="1.91"/><rect class="cls-2" x="355.95" y="167.58" width="46.79" height="1.91"/><rect class="cls-10" x="355.95" y="188.88" width="46.79" height="0.53"/><path class="cls-2" d="M362.35,180.59a28.24,28.24,0,0,0,7.23.32,23.11,23.11,0,0,0,6.68-1.43c1.49-.61,3.1-2.29,2.06-4-.92-1.49-3.21-1.64-4.74-1.28a8,8,0,0,0-4.43,3c-1.09,1.45-1.84,3.55-.56,5.12s3.35,1.74,5.09,1.5a7.72,7.72,0,0,0,2.79-1,8,8,0,0,0,1.13-.8,3.51,3.51,0,0,1,1.57-1c.76-.1.93.47,1.41.88a1.54,1.54,0,0,0,1.19.33,5.69,5.69,0,0,0,1.5-.47,4.7,4.7,0,0,1,1.89-.31c2.84.07,5.71.45,8.55.68.51,0,.5-.43,0-.48-2.11-.17-4.23-.65-6.34-.83a19,19,0,0,0-2.92-.14,18,18,0,0,0-2.51.73c-1,.21-1.12-.78-1.9-1.08a2.31,2.31,0,0,0-2.06.36c-.72.48-1.32,1.12-2.09,1.54a6.89,6.89,0,0,1-2.84.81c-1.6.09-4-.39-4.32-2.29-.31-1.72,1.12-3.51,2.37-4.53a5.94,5.94,0,0,1,4.68-1.43c.8.14,1.84.52,2,1.41.23,1-.69,1.88-1.53,2.29a14.34,14.34,0,0,1-3.15,1,28.46,28.46,0,0,1-3.55.55,27.94,27.94,0,0,1-7-.08c-.5-.08-.71.47-.21.55Z"/><path class="cls-3" d="M422.59,152.17h6.87A2.53,2.53,0,0,1,432,154.7v6.47a0,0,0,0,1,0,0H420.06a0,0,0,0,1,0,0V154.7A2.53,2.53,0,0,1,422.59,152.17Z" transform="translate(126.29 -184.22) rotate(28.48)"/><rect class="cls-5" x="402.03" y="158.12" width="11.93" height="63.53" transform="translate(139.95 -171.6) rotate(28.49)"/><rect class="cls-4" x="405.87" y="158.12" width="4.26" height="63.53" transform="translate(139.95 -171.6) rotate(28.48)"/><rect class="cls-6" x="416.44" y="159.28" width="14.77" height="2.86" transform="translate(127.95 -182.68) rotate(28.48)"/><polygon class="cls-3" points="398.1 220.65 387.61 214.96 386.54 224.47 390.7 226.73 398.1 220.65"/><polygon class="cls-5" points="390.7 226.73 386.54 224.47 385.85 230.72 390.7 226.73"/><line class="cls-12" x1="54.01" y1="66.51" x2="64.74" y2="77.25"/><line class="cls-12" x1="64.95" y1="66.51" x2="54.22" y2="77.25"/><line class="cls-12" x1="415.08" y1="227.5" x2="425.81" y2="238.23"/><line class="cls-12" x1="426.03" y1="227.5" x2="415.29" y2="238.23"/><line class="cls-13" x1="23.72" y1="189.88" x2="33.22" y2="199.39"/><line class="cls-13" x1="33.42" y1="189.88" x2="23.91" y2="199.39"/><path class="cls-12" d="M18.68,111.09a7.77,7.77,0,1,1-7.76-7.77A7.76,7.76,0,0,1,18.68,111.09Z"/><circle class="cls-12" cx="322.67" cy="97.34" r="7.77"/><path class="cls-13" d="M358.11,86.51a2,2,0,1,1-2-2A2,2,0,0,1,358.11,86.51Z"/><path class="cls-13" d="M167.76,20.69a2,2,0,1,1-2-2A2,2,0,0,1,167.76,20.69Z"/><path class="cls-5" d="M41.81,271.19v4.67a12,12,0,0,0-11.27,11.91v4a12,12,0,0,0,11.73,11.94,27.49,27.49,0,0,0,27,22.47h0a27.48,27.48,0,0,0,27.47-27.48V271.19ZM34.4,291.74v-4a8.09,8.09,0,0,1,7.41-8v18.95c0,.38,0,.75,0,1.12A8.09,8.09,0,0,1,34.4,291.74Z"/><path class="cls-3" d="M83.08,239.91a9.7,9.7,0,0,0-10.9,1.8c-.51-4-4.32-7-8.31-7.64s-8.06.8-11.56,2.81-6.65,4.71-8.09,8.4-.64,8.45,2.63,10.69a6.28,6.28,0,0,0,4.6.91A7.33,7.33,0,0,0,53,260.32a8.14,8.14,0,0,0,11.44.67,8.3,8.3,0,0,0,8.78,1.28,7.39,7.39,0,0,0,1.7-1.1,13.49,13.49,0,0,1-3,7.57,14.07,14.07,0,0,0,9.47-13.8,7.91,7.91,0,0,0,6-5.05A8.62,8.62,0,0,0,83.08,239.91Z"/><path class="cls-5" d="M206.4,75h0l-.44,0a5.31,5.31,0,0,0,0,10.61l.43,0a5.3,5.3,0,0,0,0-10.57Z"/><path class="cls-5" d="M225,80.25a3.43,3.43,0,0,0-3.43-3.43h-2l-.2-.67a13.33,13.33,0,0,0-1-2.5L218,73l1.39-1.4a3.45,3.45,0,0,0,0-4.85,3.45,3.45,0,0,0-4.86,0l-1.39,1.39-.61-.32a13.61,13.61,0,0,0-2.5-1l-.67-.2v-2a3.43,3.43,0,0,0-2.75-3.36,3.08,3.08,0,0,0-.68-.07,3.43,3.43,0,0,0-3.43,3.43v2l-.66.2a13.42,13.42,0,0,0-2.51,1l-.61.32-1.39-1.39a3.44,3.44,0,0,0-5.86,2.43,3.37,3.37,0,0,0,1,2.42l1.39,1.4-.33.61a13.33,13.33,0,0,0-1,2.5l-.2.67h-2a3.44,3.44,0,0,0-3.43,3.43,3.45,3.45,0,0,0,3.43,3.43h2l.2.66a13.42,13.42,0,0,0,1,2.51l.33.61-1.39,1.39a3.43,3.43,0,0,0,0,4.85,3.42,3.42,0,0,0,4.85,0l1.39-1.39.61.33a13.42,13.42,0,0,0,2.51,1l.66.2v2A3.44,3.44,0,0,0,206,99.28a3.81,3.81,0,0,0,.67-.07l.1,0a3.43,3.43,0,0,0,2.66-3.35v-2l.67-.2a13.61,13.61,0,0,0,2.5-1l.61-.33,1.39,1.39a3.43,3.43,0,0,0,4.86-4.85L218,87.46l.32-.61a13.42,13.42,0,0,0,1-2.51l.2-.66h2A3.44,3.44,0,0,0,225,80.25Zm-11.93,6.56a9.55,9.55,0,0,1-6.3,3.07,6.91,6.91,0,0,1-.8,0,9.67,9.67,0,1,1,0-19.34q.42,0,.81,0a9.67,9.67,0,0,1,6.29,16.2Z"/><path class="cls-5" d="M353.23,229.65h0l-.12.26a3.46,3.46,0,1,0,6.46,2.49,1.43,1.43,0,0,0,.09-.27,3.46,3.46,0,0,0-6.43-2.48Z"/><path class="cls-5" d="M360.81,219.56a2.23,2.23,0,0,0-1.72.05,2.18,2.18,0,0,0-1.18,1.24l-.46,1.2-.45,0a9.5,9.5,0,0,0-1.77.05l-.45.05-.52-1.17a2.24,2.24,0,0,0-4.1,1.82l.52,1.17-.34.3a8.68,8.68,0,0,0-1.22,1.28l-.28.36-1.19-.46a2.26,2.26,0,0,0-2.7.88,2.14,2.14,0,0,0-.2.4,2.23,2.23,0,0,0,1.29,2.9l1.19.46,0,.45a8.71,8.71,0,0,0,.05,1.77l.05.45-1.17.52a2.24,2.24,0,0,0,.1,4.14,2.28,2.28,0,0,0,1.72,0l1.17-.53.3.35a9.26,9.26,0,0,0,1.28,1.22l.35.28-.46,1.19a2.25,2.25,0,0,0,1.29,2.9,2.21,2.21,0,0,0,1.71-.05,2.18,2.18,0,0,0,1.18-1.24l.47-1.19.45,0a8.74,8.74,0,0,0,1.77-.05l.45-.05.52,1.17a2.24,2.24,0,0,0,2.95,1.14,2.25,2.25,0,0,0,1.14-3l-.52-1.17.34-.3a8.22,8.22,0,0,0,1.22-1.28l.28-.36,1.2.46a2.23,2.23,0,0,0,2.89-1.28,1.66,1.66,0,0,0,.12-.42v-.07a2.26,2.26,0,0,0-1.41-2.41l-1.2-.46,0-.45a8.73,8.73,0,0,0,0-1.77l-.06-.45,1.18-.52a2.24,2.24,0,0,0,1.18-1.24,2.23,2.23,0,0,0-1.29-2.9,2.21,2.21,0,0,0-1.71,0l-1.17.52-.3-.35a10.55,10.55,0,0,0-1.28-1.22l-.36-.27.46-1.2A2.25,2.25,0,0,0,360.81,219.56Zm1.2,8.81a6.26,6.26,0,0,1,.39,4.56,4.75,4.75,0,0,1-.17.49,6.31,6.31,0,1,1-11.78-4.53l.21-.49a6.33,6.33,0,0,1,3.35-3.11,6.33,6.33,0,0,1,8,3.08Z"/></g></g></svg>