<svg width="433" height="351" viewBox="0 0 433 351" fill="none" xmlns="http://www.w3.org/2000/svg">
<g clip-path="url(#clip0_483_781)">
<path d="M15.2301 183C35.5301 206 61.2301 214.91 73.8901 242.82C82.5701 261.96 78.4901 284.61 84.8901 304.62C93.6801 332.05 122.58 350.47 151.38 350.62C180.18 350.77 207.63 334.4 224.72 311.22C230.33 303.62 235.19 295.07 243.04 289.82C254.3 282.32 268.89 283.28 282.37 282.08C299.018 280.477 315.108 275.226 329.497 266.7C343.885 258.174 356.219 246.583 365.62 232.75C365.62 232.75 413.74 175.97 379.68 94.7502C369.77 71.1402 353.68 49.4502 331.59 36.5902C309.5 23.7302 271 23.3202 248.17 35.0002C223.94 47.4002 207.83 74.5902 181.27 80.5602C165.88 84.0202 149.98 79.5602 134.48 76.5602C112.74 72.4302 90.5701 69.8702 68.6101 72.6602C42.7701 76.0002 16.7001 88.9102 4.65006 118C0.392017 128.203 -0.991324 139.377 0.650063 150.31C2.20006 160.14 6.00006 172.54 15.2301 183Z" fill="white" fill-opacity="0.08"/>
<path d="M214.94 15.2001C209.36 8.20007 200.65 4.36007 191.94 2.20007C179.94 -0.799933 167.02 -0.999933 155.37 3.20007C143.72 7.40007 133.51 16.2501 129.21 27.8501C124.91 39.4501 127.28 53.6301 136.21 62.2201C141.341 67.0006 148.107 69.6374 155.12 69.5901C159.218 70.0578 163.369 69.5437 167.23 68.0901C175.78 64.7901 182.06 57.3201 190.23 53.2201C199.14 48.7801 210.6 48.0701 216.63 40.1501C222.08 33.0001 220.53 22.2201 214.94 15.2001Z" fill="white" fill-opacity="0.08"/>
<path d="M54.28 263.73C53.3116 261.852 52.5215 259.886 51.92 257.86C50.11 251.32 51.42 243.86 47.92 238.05C43.51 230.76 32.65 229.42 25.26 233.67C17.87 237.92 13.64 246.22 11.84 254.55C10.73 259.68 10.41 265.15 12.16 270.09C14.16 275.84 18.86 280.31 23.93 283.71C29.56 287.49 36.14 290.26 42.93 290.03C45.9793 289.923 48.9658 289.133 51.67 287.72C53.7845 286.836 55.6171 285.39 56.97 283.54C57.9216 282.423 58.7003 281.169 59.28 279.82C61.68 274.16 59.51 266.7 54.28 263.73Z" fill="#F5F5FF"/>
<path d="M321.51 120.16H109.76C107.766 120.16 106.15 121.776 106.15 123.77V259.64C106.15 261.634 107.766 263.25 109.76 263.25H321.51C323.504 263.25 325.12 261.634 325.12 259.64V123.77C325.12 121.776 323.504 120.16 321.51 120.16Z" fill="#7B70EE"/>
<path d="M319.7 130.57H111.57V249.38H319.7V130.57Z" fill="#D5CBFB"/>
<path d="M216.94 124.94C216.94 125.199 216.863 125.452 216.719 125.668C216.575 125.883 216.371 126.051 216.131 126.15C215.892 126.25 215.629 126.276 215.375 126.225C215.12 126.174 214.887 126.05 214.704 125.866C214.521 125.683 214.396 125.45 214.345 125.196C214.295 124.942 214.321 124.678 214.42 124.439C214.519 124.199 214.687 123.995 214.902 123.851C215.118 123.707 215.371 123.63 215.63 123.63C215.978 123.63 216.311 123.768 216.556 124.014C216.802 124.259 216.94 124.593 216.94 124.94Z" fill="#D5CBFB"/>
<path d="M354.59 309.94L327.69 267.13C326.944 265.946 325.912 264.97 324.688 264.292C323.464 263.614 322.089 263.255 320.69 263.25H110.6C109.201 263.256 107.826 263.615 106.603 264.293C105.379 264.971 104.347 265.947 103.6 267.13L76.68 309.94C75.9369 311.132 75.6559 312.555 75.89 313.94H355.38C355.614 312.555 355.333 311.132 354.59 309.94Z" fill="#D5CBFB"/>
<path d="M75.8901 314C75.9319 314.289 75.9988 314.573 76.0901 314.85L76.5101 316.12C76.8979 317.268 77.6365 318.265 78.6217 318.97C79.6068 319.675 80.7886 320.053 82.0001 320.05H349.27C350.482 320.049 351.664 319.668 352.647 318.959C353.631 318.25 354.366 317.25 354.75 316.1L355.17 314.83C355.265 314.553 355.335 314.269 355.38 313.98L75.8901 314Z" fill="#7B70EE"/>
<path d="M120.72 284.37L122.03 281.49H115.55L114.16 284.37H120.72Z" fill="#7B70EE"/>
<path d="M132.14 276.17L132.78 274.67L133.37 273.29H127.1L125.79 276.17H132.14Z" fill="#7B70EE"/>
<path d="M123.37 281.49L122.06 284.37H128.63L129.86 281.49H123.37Z" fill="#7B70EE"/>
<path d="M122.58 280.27L123.89 277.39H117.52L116.14 280.27H122.58Z" fill="#7B70EE"/>
<path d="M254.54 273.29L255.26 276.17H260.84L260.03 273.29H254.54Z" fill="#7B70EE"/>
<path d="M154.54 281.49L153.66 284.37H160.29L161.13 281.49H154.54Z" fill="#7B70EE"/>
<path d="M146.79 281.49L145.76 284.37H152.39L153.27 281.49H146.79Z" fill="#7B70EE"/>
<path d="M139.01 281.49L137.85 284.37H144.46L145.5 281.49H139.01Z" fill="#7B70EE"/>
<path d="M131.19 281.49L129.96 284.37H136.54L137.69 281.49H131.19Z" fill="#7B70EE"/>
<path d="M261.3 273.29L262.1 276.17H267.31L266.47 273.29H261.3Z" fill="#7B70EE"/>
<path d="M176.95 277.39L176.23 280.27H181.47L182.12 277.39H176.95Z" fill="#7B70EE"/>
<path d="M233.8 273.29L234.29 276.17H240.34L239.77 273.29H233.8Z" fill="#7B70EE"/>
<path d="M176 276.17L176.73 273.29H171.23L170.43 276.17H176Z" fill="#7B70EE"/>
<path d="M169.16 276.17L169.97 273.29H164.8L163.96 276.17H169.16Z" fill="#7B70EE"/>
<path d="M182.39 276.17L183.04 273.29H177.98L177.26 276.17H182.39Z" fill="#7B70EE"/>
<path d="M267.74 273.29L268.58 276.17H275.1L274.21 273.29H267.74Z" fill="#7B70EE"/>
<path d="M149.75 273.29L148.71 276.17H154.9L155.35 274.69L155.78 273.29H149.75Z" fill="#7B70EE"/>
<path d="M147.41 276.17L148.45 273.29H142.29L141.14 276.17H147.41Z" fill="#7B70EE"/>
<path d="M134.69 273.29L133.46 276.17H139.83L140.43 274.67L140.98 273.29H134.69Z" fill="#7B70EE"/>
<path d="M248.23 273.29L248.88 276.17H254L253.28 273.29H248.23Z" fill="#7B70EE"/>
<path d="M241.01 273.29L241.58 276.17H247.63L246.98 273.29H241.01Z" fill="#7B70EE"/>
<path d="M162.69 276.17L163.53 273.29H157.05L156.17 276.17H162.69Z" fill="#7B70EE"/>
<path d="M170.31 272.07L171.05 269.39H165.94L165.15 272.07H170.31Z" fill="#7B70EE"/>
<path d="M163.88 272.07L164.67 269.39H158.25L157.42 272.07H163.88Z" fill="#7B70EE"/>
<path d="M226.68 273.29L227.02 276.17H233.06L232.57 273.29H226.68Z" fill="#7B70EE"/>
<path d="M190.49 272.07L191.02 269.39H185.16L184.56 272.07H190.49Z" fill="#7B70EE"/>
<path d="M183.31 272.07L183.91 269.39H178.97L178.29 272.07H183.31Z" fill="#7B70EE"/>
<path d="M177.03 272.07L177.71 269.39H172.32L171.57 272.07H177.03Z" fill="#7B70EE"/>
<path d="M297.9 273.29L299.13 276.17H305.48L304.17 273.29H297.9Z" fill="#7B70EE"/>
<path d="M133.89 272.07L135.04 269.39H128.87L127.65 272.07H133.89Z" fill="#7B70EE"/>
<path d="M141.47 272.07L142.54 269.39H136.36L135.22 272.07H141.47Z" fill="#7B70EE"/>
<path d="M156.15 272.07L156.97 269.39H151.15L150.18 272.07H156.15Z" fill="#7B70EE"/>
<path d="M305.51 273.29L306.82 276.17H313.15L311.77 273.29H305.51Z" fill="#7B70EE"/>
<path d="M148.89 272.07L149.85 269.39H143.86L142.78 272.07H148.89Z" fill="#7B70EE"/>
<path d="M275.49 273.29L276.37 276.17H282.56L281.52 273.29H275.49Z" fill="#7B70EE"/>
<path d="M189.87 281.49L189.3 284.37H195.57L196.06 281.49H189.87Z" fill="#7B70EE"/>
<path d="M162.4 281.49L161.56 284.37H166.88L167.68 281.49H162.4Z" fill="#7B70EE"/>
<path d="M182.44 281.49L181.8 284.37H188.06L188.63 281.49H182.44Z" fill="#7B70EE"/>
<path d="M168.95 281.49L168.14 284.37H173.94L174.66 281.49H168.95Z" fill="#7B70EE"/>
<path d="M175.92 281.49L175.2 284.37H180.55L181.19 281.49H175.92Z" fill="#7B70EE"/>
<path d="M198.7 273.29L198.21 276.17H204.25L204.58 273.29H198.7Z" fill="#7B70EE"/>
<path d="M197.67 272.07L198.13 269.39H192.26L191.73 272.07H197.67Z" fill="#7B70EE"/>
<path d="M190.68 277.39L190.11 280.27H196.27L196.76 277.39H190.68Z" fill="#7B70EE"/>
<path d="M290.29 273.29L291.44 276.17H297.8L296.57 273.29H290.29Z" fill="#7B70EE"/>
<path d="M203.77 280.27L204.1 277.39H198L197.51 280.27H203.77Z" fill="#7B70EE"/>
<path d="M282.81 273.29L283.85 276.17H290.13L288.97 273.29H282.81Z" fill="#7B70EE"/>
<path d="M124.45 276.17L125.76 273.29H119.5L118.11 276.17H124.45Z" fill="#7B70EE"/>
<path d="M263.12 284.37L262.32 281.49H256.6L257.33 284.37H263.12Z" fill="#7B70EE"/>
<path d="M170.09 277.39L169.29 280.27H174.97L175.69 277.39H170.09Z" fill="#7B70EE"/>
<path d="M273.84 272.07L273.02 269.39H266.6L267.38 272.07H273.84Z" fill="#7B70EE"/>
<path d="M288.48 272.07L287.41 269.39H281.41L282.38 272.07H288.48Z" fill="#7B70EE"/>
<path d="M281.08 272.07L280.12 269.39H274.3L275.12 272.07H281.08Z" fill="#7B70EE"/>
<path d="M246.7 272.07L246.1 269.39H240.25L240.77 272.07H246.7Z" fill="#7B70EE"/>
<path d="M239.53 272.07L239 269.39H233.14L233.6 272.07H239.53Z" fill="#7B70EE"/>
<path d="M296.05 272.07L294.9 269.39H288.72L289.8 272.07H296.05Z" fill="#7B70EE"/>
<path d="M259.69 272.07L258.95 269.39H253.56L254.23 272.07H259.69Z" fill="#7B70EE"/>
<path d="M252.97 272.07L252.3 269.39H247.35L247.95 272.07H252.97Z" fill="#7B70EE"/>
<path d="M256.07 284.37L255.34 281.49H250.07L250.72 284.37H256.07Z" fill="#7B70EE"/>
<path d="M301.31 284.37L300.08 281.49H293.57L294.72 284.37H301.31Z" fill="#7B70EE"/>
<path d="M285.51 284.37L284.47 281.49H278L278.88 284.37H285.51Z" fill="#7B70EE"/>
<path d="M317.1 284.37L315.71 281.49H309.24L310.55 284.37H317.1Z" fill="#7B70EE"/>
<path d="M309.21 284.37L307.9 281.49H301.4L302.63 284.37H309.21Z" fill="#7B70EE"/>
<path d="M293.41 284.37L292.25 281.49H285.77L286.8 284.37H293.41Z" fill="#7B70EE"/>
<path d="M249.47 284.37L248.82 281.49H242.64L243.21 284.37H249.47Z" fill="#7B70EE"/>
<path d="M303.61 272.07L302.39 269.39H296.23L297.37 272.07H303.61Z" fill="#7B70EE"/>
<path d="M314.51 276.17H320.36L318.73 273.29H313.12L314.51 276.17Z" fill="#7B70EE"/>
<path d="M269.71 284.37L268.86 281.49H263.58L264.39 284.37H269.71Z" fill="#7B70EE"/>
<path d="M311.18 272.07L309.89 269.39H303.73L304.95 272.07H311.18Z" fill="#7B70EE"/>
<path d="M277.6 284.37L276.72 281.49H270.13L270.98 284.37H277.6Z" fill="#7B70EE"/>
<path d="M318.04 272.07L316.52 269.39H311.24L312.53 272.07H318.04Z" fill="#7B70EE"/>
<path d="M266.11 272.07L265.33 269.39H260.21L260.96 272.07H266.11Z" fill="#7B70EE"/>
<path d="M226.75 284.37L226.41 281.49H220.09L220.21 284.37H226.75Z" fill="#7B70EE"/>
<path d="M132.94 277.39L132.3 278.89L131.71 280.27H138.18L139.34 277.39H132.94Z" fill="#7B70EE"/>
<path d="M233.76 280.27L233.27 277.39H227.16L227.5 280.27H233.76Z" fill="#7B70EE"/>
<path d="M130.38 280.27L131.62 277.39H125.23L124.55 278.9L123.92 280.27H130.38Z" fill="#7B70EE"/>
<path d="M184.29 273.29L183.64 276.17H189.68L190.25 273.29H184.29Z" fill="#7B70EE"/>
<path d="M191.49 273.29L190.92 276.17H196.97L197.46 273.29H191.49Z" fill="#7B70EE"/>
<path d="M155.8 277.39L154.92 280.27H161.49L162.33 277.39H155.8Z" fill="#7B70EE"/>
<path d="M140.65 277.39L139.5 280.27H145.94L146.97 277.39H140.65Z" fill="#7B70EE"/>
<path d="M163.6 277.39L162.76 280.27H168.02L168.82 277.39H163.6Z" fill="#7B70EE"/>
<path d="M219.92 277.39L220.04 280.27H226.27L225.93 277.39H219.92Z" fill="#7B70EE"/>
<path d="M148.27 277.39L147.23 280.27H153.64L154.52 277.39H148.27Z" fill="#7B70EE"/>
<path d="M225.31 272.07L225 269.39H219.6L219.71 272.07H225.31Z" fill="#7B70EE"/>
<path d="M241.96 284.37L241.39 281.49H235.2L235.69 284.37H241.96Z" fill="#7B70EE"/>
<path d="M212.88 269.39L212.78 272.07H218.49L218.38 269.39H212.88Z" fill="#7B70EE"/>
<path d="M212.73 273.29L212.61 276.17H218.65L218.54 273.29H212.73Z" fill="#7B70EE"/>
<path d="M225.79 276.17L225.46 273.29H219.76L219.87 276.17H225.79Z" fill="#7B70EE"/>
<path d="M232.36 272.07L231.9 269.39H226.23L226.54 272.07H232.36Z" fill="#7B70EE"/>
<path d="M212.56 277.39L212.44 280.27H218.82L218.7 277.39H212.56Z" fill="#7B70EE"/>
<path d="M212.4 281.49L212.28 284.37H218.98L218.87 281.49H212.4Z" fill="#7B70EE"/>
<path d="M211.56 272.07L211.66 269.39H206.26L205.95 272.07H211.56Z" fill="#7B70EE"/>
<path d="M198.91 272.07H204.72L205.03 269.39H199.36L198.91 272.07Z" fill="#7B70EE"/>
<path d="M241.15 280.27L240.58 277.39H234.5L234.99 280.27H241.15Z" fill="#7B70EE"/>
<path d="M183.37 277.39L182.72 280.27H188.87L189.44 277.39H183.37Z" fill="#7B70EE"/>
<path d="M105.58 285.59L104.16 288.11H111.01L112.22 285.59H105.58Z" fill="#7B70EE"/>
<path d="M268.51 280.27L267.67 277.39H262.44L263.25 280.27H268.51Z" fill="#7B70EE"/>
<path d="M264.73 285.59L265.43 288.11H270.8L270.06 285.59H264.73Z" fill="#7B70EE"/>
<path d="M255.04 280.27L254.31 277.39H249.15L249.8 280.27H255.04Z" fill="#7B70EE"/>
<path d="M211.06 284.37L211.18 281.49H204.85L204.52 284.37H211.06Z" fill="#7B70EE"/>
<path d="M287.24 285.59L288.15 288.11H294.91L293.9 285.59H287.24Z" fill="#7B70EE"/>
<path d="M307.34 280.27L306.03 277.39H299.65L300.88 280.27H307.34Z" fill="#7B70EE"/>
<path d="M295.21 285.59L296.22 288.11H302.91L301.83 285.59H295.21Z" fill="#7B70EE"/>
<path d="M197.3 281.49L196.81 284.37H203.29L203.63 281.49H197.3Z" fill="#7B70EE"/>
<path d="M107.9 281.49L106.27 284.37H112.81L114.19 281.49H107.9Z" fill="#7B70EE"/>
<path d="M228.11 285.59L228.41 288.11H235.09L234.66 285.59H228.11Z" fill="#7B70EE"/>
<path d="M129.44 285.59L128.36 288.11H135.04L136.05 285.59H129.44Z" fill="#7B70EE"/>
<path d="M211.01 285.59H204.38L204.09 288.11H210.91L211.01 285.59Z" fill="#7B70EE"/>
<path d="M299.55 280.27L298.32 277.39H291.93L293.08 280.27H299.55Z" fill="#7B70EE"/>
<path d="M113.57 285.59L112.36 288.11H119.02L120.17 285.59H113.57Z" fill="#7B70EE"/>
<path d="M241.82 277.39L242.4 280.27H248.55L247.9 277.39H241.82Z" fill="#7B70EE"/>
<path d="M271.33 285.59L272.07 288.11H278.75L277.97 285.59H271.33Z" fill="#7B70EE"/>
<path d="M243.45 285.59L243.94 288.11H250.31L249.74 285.59H243.45Z" fill="#7B70EE"/>
<path d="M276.35 280.27L275.47 277.39H268.94L269.78 280.27H276.35Z" fill="#7B70EE"/>
<path d="M284.03 280.27L283 277.39H276.74L277.62 280.27H284.03Z" fill="#7B70EE"/>
<path d="M235.9 285.59L236.33 288.11H242.7L242.2 285.59H235.9Z" fill="#7B70EE"/>
<path d="M279.25 285.59L280.02 288.11H286.85L285.95 285.59H279.25Z" fill="#7B70EE"/>
<path d="M112.54 273.29L110.91 276.17H116.76L118.14 273.29H112.54Z" fill="#7B70EE"/>
<path d="M311.1 285.59L312.25 288.11H318.9L317.69 285.59H311.1Z" fill="#7B70EE"/>
<path d="M114.74 269.39L113.23 272.07H118.73L120.02 269.39H114.74Z" fill="#7B70EE"/>
<path d="M291.77 280.27L290.61 277.39H284.29L285.33 280.27H291.77Z" fill="#7B70EE"/>
<path d="M194.94 288.11L195.36 285.59H137.37L136.36 288.11H194.94Z" fill="#7B70EE"/>
<path d="M250.99 285.59L251.56 288.11H257.01L256.38 285.59H250.99Z" fill="#7B70EE"/>
<path d="M205.47 276.17H211.39L211.51 273.29H205.81L205.47 276.17Z" fill="#7B70EE"/>
<path d="M323.36 281.49H317.07L320.26 288.11H327.11L323.36 281.49Z" fill="#7B70EE"/>
<path d="M316.48 280.27H322.67L321.04 277.39H315.1L316.48 280.27Z" fill="#7B70EE"/>
<path d="M315.13 280.27L313.74 277.39H307.37L308.68 280.27H315.13Z" fill="#7B70EE"/>
<path d="M202.86 288.11L203.15 285.59H196.6L196.17 288.11H202.86Z" fill="#7B70EE"/>
<path d="M212.23 285.59L212.13 288.11H227.18L226.89 285.59H212.23Z" fill="#7B70EE"/>
<path d="M303.16 285.59L304.23 288.11H310.91L309.76 285.59H303.16Z" fill="#7B70EE"/>
<path d="M261.98 280.27L261.18 277.39H255.57L256.3 280.27H261.98Z" fill="#7B70EE"/>
<path d="M257.63 285.59L258.27 288.11H264.17L263.46 285.59H257.63Z" fill="#7B70EE"/>
<path d="M110.22 277.39L108.59 280.27H114.78L116.17 277.39H110.22Z" fill="#7B70EE"/>
<path d="M126.31 272.07L127.53 269.39H121.38L120.09 272.07H126.31Z" fill="#7B70EE"/>
<path d="M121.5 285.59L120.36 288.11H127.03L128.11 285.59H121.5Z" fill="#7B70EE"/>
<path d="M211.22 280.27L211.34 277.39H205.33L205 280.27H211.22Z" fill="#7B70EE"/>
<path d="M233.97 281.49H227.64L227.97 284.37H234.46L233.97 281.49Z" fill="#7B70EE"/>
<path d="M253.84 309.59H177.42C177.258 309.598 177.096 309.567 176.949 309.498C176.802 309.43 176.674 309.327 176.575 309.198C176.477 309.069 176.411 308.918 176.384 308.758C176.357 308.598 176.37 308.434 176.42 308.28L181.27 292.49C181.334 292.277 181.467 292.092 181.648 291.964C181.829 291.835 182.048 291.77 182.27 291.78H249C249.222 291.77 249.441 291.835 249.622 291.964C249.803 292.092 249.936 292.277 250 292.49L254.86 308.28C254.911 308.434 254.923 308.598 254.896 308.758C254.869 308.918 254.803 309.069 254.705 309.198C254.606 309.327 254.478 309.43 254.331 309.498C254.184 309.567 254.022 309.598 253.86 309.59H253.84ZM182.28 292.68C182.257 292.679 182.234 292.687 182.216 292.702C182.197 292.716 182.185 292.737 182.18 292.76L177.32 308.55C177.312 308.564 177.308 308.579 177.308 308.595C177.308 308.611 177.312 308.626 177.32 308.64C177.328 308.654 177.34 308.666 177.354 308.675C177.368 308.684 177.384 308.689 177.4 308.69H253.82C253.838 308.69 253.856 308.685 253.871 308.676C253.887 308.667 253.9 308.655 253.91 308.64C253.918 308.626 253.922 308.611 253.922 308.595C253.922 308.579 253.918 308.564 253.91 308.55L249.06 292.76C249.052 292.737 249.037 292.717 249.017 292.703C248.998 292.689 248.974 292.681 248.95 292.68H182.28Z" fill="#7B70EE"/>
<path d="M252.74 148.78L169.73 161.87L249.54 201.8L332.21 189.5L252.74 148.78Z" fill="#1C1C84"/>
<path d="M169.73 161.87V163.76L249.6 205.5L332.21 191.32V189.5L249.54 201.8L169.73 161.87Z" fill="#2525AD"/>
<path d="M200.61 206.79L199.34 215.23C199.34 215.23 233.42 242.6 281.48 229.14L282.22 222.55C239.74 229.66 213 215.89 200.61 206.79Z" fill="#2525AD"/>
<path d="M301.81 251.23C297.363 247.564 294.18 242.593 292.71 237.02C292.6 236.62 292.05 236.76 291.99 237.11C291.599 237.044 291.206 236.997 290.81 236.97C287.76 242.89 290.12 249.56 292.16 255.41C292.32 255.87 292.83 255.63 292.66 255.16C291.07 250.59 289.36 245.46 290.33 240.64C289.88 246.814 291.736 252.936 295.54 257.82C295.81 258.17 296.23 257.75 295.96 257.4C292.574 252.954 290.822 247.476 291 241.89C291.082 244.072 291.466 246.233 292.14 248.31C293.328 251.465 294.889 254.466 296.79 257.25C297.05 257.67 297.47 257.25 297.2 256.83C295.455 254.145 294.023 251.27 292.93 248.26C292.466 246.963 292.131 245.623 291.93 244.26C292.959 248.727 295.11 252.857 298.18 256.26C298.51 256.61 298.94 256.26 298.61 255.93C295.302 252.165 293.137 247.533 292.37 242.58C293.681 247.204 295.938 251.505 299 255.21C299.3 255.59 299.62 255.21 299.31 254.8C296.437 251.145 294.357 246.933 293.2 242.43C294.84 247.05 296.97 251.5 300.72 254.79C301.09 255.11 301.49 254.79 301.12 254.41C298.662 252.056 296.733 249.207 295.46 246.05C296.961 248.733 298.777 251.228 300.87 253.48C301.2 253.84 301.48 253.27 301.15 252.92C299.377 250.923 297.825 248.74 296.52 246.41C297.931 248.311 299.581 250.022 301.43 251.5C301.78 251.8 302.19 251.53 301.81 251.23Z" fill="#F0C64B"/>
<path d="M294 187.33C292.193 185.353 289.983 183.784 287.52 182.73C282.76 180.42 277.46 179.41 272.29 178.43C264.98 177.05 257.51 175.77 251.44 171.17C251.396 171.133 251.345 171.105 251.29 171.089C251.235 171.073 251.176 171.069 251.119 171.077C251.062 171.086 251.008 171.107 250.96 171.138C250.912 171.17 250.871 171.211 250.84 171.26C250.756 171.348 250.71 171.464 250.71 171.585C250.71 171.706 250.756 171.823 250.84 171.91C255.3 176.17 261.25 178.27 267.11 179.76C272.97 181.25 279.11 182.28 284.74 184.63L285.27 184.85L285.49 184.95L286.35 185.38C287.418 185.886 288.444 186.475 289.42 187.14C290.613 187.927 291.633 188.948 292.42 190.14C293.196 191.465 293.568 192.987 293.49 194.52C293.408 196.132 293.211 197.736 292.9 199.32C292.63 200.96 292.38 202.61 292.13 204.26C291.61 207.67 291.13 211.08 290.75 214.5C289.774 222.054 289.886 229.708 291.08 237.23C291.18 237.79 292.08 237.66 292.08 237.1C291.664 229.986 292.016 222.848 293.13 215.81C293.63 212.3 294.23 208.81 294.84 205.32C295.42 202.04 296.18 198.74 296.45 195.42C296.595 193.977 296.454 192.519 296.033 191.13C295.613 189.742 294.922 188.45 294 187.33Z" fill="#F0C64B"/>
<path d="M290.66 237.86L290.92 237.74H290.99H291.11C291.3 237.682 291.494 237.638 291.69 237.61H291.83H292.45H292.59H292.66C292.786 237.655 292.924 237.655 293.05 237.61C293.107 237.58 293.158 237.539 293.199 237.489C293.24 237.439 293.271 237.382 293.29 237.32C293.331 237.192 293.319 237.052 293.257 236.932C293.195 236.812 293.089 236.721 292.96 236.68C292.021 236.5 291.049 236.63 290.19 237.05C290.131 237.081 290.079 237.123 290.037 237.173C289.994 237.224 289.962 237.283 289.943 237.346C289.923 237.409 289.917 237.476 289.923 237.542C289.929 237.608 289.949 237.672 289.98 237.73C290.045 237.845 290.152 237.931 290.278 237.97C290.405 238.009 290.541 237.998 290.66 237.94V237.86Z" fill="#D8A32B"/>
<path d="M290.56 236.87L290.82 236.75C290.87 236.75 290.88 236.75 290.82 236.75H290.9H291.02C291.21 236.692 291.404 236.648 291.6 236.62H291.74H292.02H292.31H292.53C292.46 236.62 292.46 236.62 292.53 236.62C292.655 236.67 292.795 236.67 292.92 236.62C293.036 236.555 293.122 236.448 293.16 236.32C293.18 236.257 293.188 236.191 293.182 236.125C293.176 236.059 293.157 235.995 293.127 235.936C293.096 235.878 293.054 235.826 293.003 235.783C292.952 235.741 292.893 235.709 292.83 235.69C291.892 235.502 290.919 235.628 290.06 236.05C290.002 236.081 289.95 236.123 289.908 236.174C289.866 236.225 289.834 236.283 289.814 236.347C289.795 236.41 289.788 236.476 289.794 236.542C289.8 236.608 289.819 236.672 289.85 236.73C289.881 236.789 289.923 236.84 289.974 236.883C290.025 236.925 290.083 236.956 290.147 236.976C290.21 236.995 290.276 237.002 290.342 236.996C290.408 236.99 290.472 236.971 290.53 236.94L290.56 236.87Z" fill="#D8A32B"/>
<path d="M284.71 202.69L285.13 199.41L249.6 205.5L204.89 182.14L203.93 187.66L248.71 210.2L284.71 202.69Z" fill="#0C0C5B"/>
<path d="M248.71 210.2L203.93 187.66L200.61 206.79C212.99 215.89 239.74 229.66 282.22 222.55L284.71 202.69L248.71 210.2Z" fill="#1C1C84"/>
<path d="M194.43 236.16C196.43 241.5 192.15 248.01 184.91 250.69C177.67 253.37 173.55 249.99 170.65 245.09C166.42 237.91 170.5 234.04 177.74 231.36C184.98 228.68 192.44 230.82 194.43 236.16Z" fill="#FFF6DC"/>
<path d="M122.18 177.36C122.18 177.36 140.13 195.85 154.84 229.04C154.84 229.04 161.84 247.04 166.4 251.56C166.4 251.56 162.7 247.39 168.35 240.72C170.411 238.286 172.955 236.308 175.821 234.91C178.688 233.512 181.813 232.725 185 232.6C188.58 232.47 192.33 233.22 194.46 236.23C194.46 236.23 170.52 208.02 154.87 183.69C148.62 173.96 145.66 165.93 144.36 159.79C143.352 158.727 142.155 157.863 140.83 157.24C132.19 152.97 122.02 158.71 120.51 168.24C120.362 169.18 120.278 170.129 120.26 171.08C120.26 171.08 120.13 175.29 122.18 177.36Z" fill="white"/>
<path d="M166.4 251.56C166.4 251.56 174.26 261.04 192.06 249.66C192.06 249.66 203.06 242.32 197.58 229.51C190.122 223.792 183.273 217.321 177.14 210.2C165.463 196.542 155.585 181.442 147.75 165.27L145.39 163.85C145.39 163.85 147.09 173.07 158.09 188.6C169.09 204.13 189.39 230.14 189.39 230.14L192.5 233.88C193.391 234.929 193.99 236.193 194.238 237.546C194.485 238.9 194.372 240.294 193.91 241.59C192.5 245.3 188.39 249.71 176.91 250.38L169.73 239.24C169.73 239.24 162.77 245 166.4 251.56Z" fill="#F4E7BD"/>
<path d="M183.78 217.42C183.78 217.42 163.16 195.91 148.7 161.87C147.39 159.773 145.965 157.749 144.43 155.81C144.43 155.81 157 194.66 183.78 217.42Z" fill="white"/>
<path d="M145.85 211.18C148.151 207.249 151.466 204.009 155.45 201.799C159.433 199.589 163.937 198.491 168.49 198.62C171.67 198.78 171.66 194.83 168.49 194.62C157.9 194.09 147.41 199.38 142.27 208.62C142.27 208.62 144.27 213.89 145.85 211.11V211.18Z" fill="#F0C64B"/>
<path d="M113.89 184.97H73.4101C68.0198 184.97 63.6501 189.34 63.6501 194.73V215.81C63.6501 221.2 68.0198 225.57 73.4101 225.57H113.89C119.28 225.57 123.65 221.2 123.65 215.81V194.73C123.65 189.34 119.28 184.97 113.89 184.97Z" fill="#2525AD"/>
<path d="M87.21 205.27V197.83L93.65 201.55L100.09 205.27L93.65 208.99L87.21 212.71V205.27Z" fill="#D5CBFB"/>
<path d="M81.93 136C81.9314 131.979 80.8526 128.031 78.8064 124.569C76.7602 121.107 73.8218 118.259 70.2982 116.321C66.7746 114.383 62.7952 113.427 58.7759 113.554C54.7566 113.68 50.845 114.883 47.4498 117.038C44.0546 119.193 41.3006 122.22 39.4755 125.803C37.6504 129.387 36.8212 133.394 37.0747 137.407C37.3281 141.421 38.6549 145.292 40.9163 148.617C43.1777 151.943 46.2907 154.599 49.93 156.31V163.47H69V156.31C72.863 154.504 76.131 151.634 78.4211 148.037C80.7111 144.44 81.9284 140.264 81.93 136Z" fill="white"/>
<path d="M69.64 167.2H49.33C48.8393 167.2 48.3688 167.005 48.0218 166.658C47.6749 166.311 47.48 165.841 47.48 165.35C47.48 164.859 47.6749 164.389 48.0218 164.042C48.3688 163.695 48.8393 163.5 49.33 163.5H69.64C70.1306 163.5 70.6012 163.695 70.9481 164.042C71.2951 164.389 71.49 164.859 71.49 165.35C71.49 165.841 71.2951 166.311 70.9481 166.658C70.6012 167.005 70.1306 167.2 69.64 167.2Z" fill="#F0C64B"/>
<path d="M52.0601 169.05H66.9001V170.28C66.9001 171.254 66.7081 172.219 66.3352 173.12C65.9624 174.02 65.4158 174.838 64.7268 175.527C64.0378 176.216 63.2198 176.762 62.3196 177.135C61.4193 177.508 60.4545 177.7 59.4801 177.7C57.5122 177.7 55.6248 176.918 54.2333 175.527C52.8418 174.135 52.0601 172.248 52.0601 170.28V169.05Z" fill="#F0C64B"/>
<path d="M69.64 170.9H49.33C48.8393 170.9 48.3688 170.705 48.0218 170.358C47.6749 170.011 47.48 169.541 47.48 169.05C47.48 168.559 47.6749 168.089 48.0218 167.742C48.3688 167.395 48.8393 167.2 49.33 167.2H69.64C70.1306 167.2 70.6012 167.395 70.9481 167.742C71.2951 168.089 71.49 168.559 71.49 169.05C71.49 169.541 71.2951 170.011 70.9481 170.358C70.6012 170.705 70.1306 170.9 69.64 170.9Z" fill="#D8A32B"/>
<path d="M61.5299 163.5H60.4699V132.32C60.4699 132.055 60.3646 131.801 60.177 131.613C59.9895 131.426 59.7352 131.32 59.4699 131.32C59.2047 131.32 58.9504 131.426 58.7628 131.613C58.5753 131.801 58.4699 132.055 58.4699 132.32V163.5H57.4399V132.32C57.4399 131.778 57.6554 131.258 58.0389 130.874C58.4224 130.491 58.9426 130.275 59.4849 130.275C60.0273 130.275 60.5475 130.491 60.931 130.874C61.3145 131.258 61.5299 131.778 61.5299 132.32V163.5Z" fill="#F0C64B"/>
<path d="M24.2101 128.38L23.5901 131.59L32.9701 133.39C33.0975 132.303 33.2878 131.225 33.5401 130.16L24.2101 128.38Z" fill="#7B70EE"/>
<path d="M31.6401 113.58L29.6401 116.19L37.1201 121.86C37.7312 120.942 38.3992 120.064 39.1201 119.23L31.6401 113.58Z" fill="#7B70EE"/>
<path d="M44.7501 103.59L41.8301 105.06L46.0001 113.4C46.9692 112.846 47.971 112.352 49.0001 111.92L44.7501 103.59Z" fill="#7B70EE"/>
<path d="M95.3802 131.59L94.7602 128.38L85.4202 130.16C85.6806 131.224 85.8743 132.302 86.0002 133.39L95.3802 131.59Z" fill="#7B70EE"/>
<path d="M89.3101 116.19L87.3101 113.58L79.8501 119.23C80.568 120.067 81.2358 120.945 81.8501 121.86L89.3101 116.19Z" fill="#7B70EE"/>
<path d="M77.14 105.06L74.21 103.59L70 111.92C71.0018 112.355 71.9769 112.849 72.92 113.4L77.14 105.06Z" fill="#7B70EE"/>
<path d="M61.16 109.82L61.0801 100.33H57.8L57.8801 109.79C58.4101 109.79 58.95 109.73 59.48 109.73C60.01 109.73 60.6 109.79 61.16 109.82Z" fill="#7B70EE"/>
<path d="M391.01 307.45H296.16V326.15H391.01V307.45Z" fill="#F0C64B"/>
<path d="M305.32 307.45H301.5V326.15H305.32V307.45Z" fill="#D8A32B"/>
<path d="M311.06 307.45H307.24V326.15H311.06V307.45Z" fill="#D8A32B"/>
<path d="M379.94 307.45H376.12V326.15H379.94V307.45Z" fill="#D8A32B"/>
<path d="M385.67 307.45H381.85V326.15H385.67V307.45Z" fill="#D8A32B"/>
<path d="M400.14 297V294.12C400.137 292.153 399.355 290.267 397.964 288.876C396.573 287.485 394.687 286.703 392.72 286.7H308.19V304.41H392.72C394.685 304.408 396.57 303.626 397.96 302.238C399.351 300.849 400.135 298.966 400.14 297Z" fill="white"/>
<path d="M392.72 283.62H307.64V286.73H392.72C394.687 286.733 396.573 287.515 397.964 288.906C399.355 290.297 400.137 292.183 400.14 294.15V297C400.135 298.965 399.351 300.849 397.96 302.237C396.57 303.626 394.685 304.407 392.72 304.41H307.64V307.53H392.72C395.513 307.527 398.191 306.418 400.167 304.444C402.142 302.47 403.255 299.793 403.26 297V294.12C403.247 291.332 402.131 288.663 400.156 286.696C398.181 284.729 395.508 283.623 392.72 283.62Z" fill="#2525AD"/>
<path d="M394.38 290.7H308.19V292.12H394.38V290.7Z" fill="#F5F5FF"/>
<path d="M394.38 294.96H308.19V296.38H394.38V294.96Z" fill="#F5F5FF"/>
<path d="M394.38 299.23H308.19V300.65H394.38V299.23Z" fill="#F5F5FF"/>
<path d="M300.94 274.24V271.65C300.943 269.88 301.648 268.184 302.9 266.933C304.153 265.682 305.85 264.98 307.62 264.98H383.74V280.92H307.62C305.849 280.917 304.152 280.213 302.9 278.961C301.647 277.708 300.943 276.011 300.94 274.24Z" fill="white"/>
<path d="M307.62 262.17H384.24V265H307.62C305.85 265 304.153 265.703 302.9 266.953C301.648 268.204 300.943 269.9 300.94 271.67V274.26C300.943 276.031 301.647 277.729 302.9 278.981C304.152 280.233 305.849 280.938 307.62 280.94H384.24V283.75H307.62C305.106 283.745 302.696 282.743 300.919 280.964C299.142 279.185 298.143 276.775 298.14 274.26V271.67C298.139 270.424 298.383 269.19 298.859 268.038C299.334 266.886 300.032 265.839 300.913 264.957C301.793 264.075 302.838 263.374 303.989 262.896C305.14 262.418 306.374 262.171 307.62 262.17Z" fill="#F0C64B"/>
<path d="M306.13 269.82H383.74V268.54H306.13V269.82Z" fill="#F5F5FF"/>
<path d="M306.13 273.66H383.74V272.38H306.13V273.66Z" fill="#F5F5FF"/>
<path d="M306.13 277.51H383.74V276.23H306.13V277.51Z" fill="#F5F5FF"/>
<path d="M148 63.33C149.694 63.3059 151.329 63.9545 152.545 65.1336C153.762 66.3127 154.461 67.926 154.49 69.62V70.62C155.938 75.0365 156.645 79.6625 156.58 84.31C156.644 88.9574 155.938 93.5833 154.49 98V99C154.44 100.679 153.732 102.271 152.517 103.431C151.302 104.592 149.68 105.227 148 105.2C143.26 105.2 139.41 95.83 139.41 84.27C139.41 72.71 143.26 63.33 148 63.33Z" fill="#F0C64B"/>
<path d="M142.33 84.53C142.33 91.61 142.88 97.34 143.55 97.34C144.22 97.34 144.78 91.61 144.78 84.53C144.78 77.45 144.23 71.73 143.55 71.73C142.87 71.73 142.33 77.46 142.33 84.53Z" fill="#D8A32B"/>
<path d="M163.57 74.7801V94.2901C163.13 99.1101 158.69 103.59 152.74 105.2V63.8701C158.69 65.4801 163.13 70.0001 163.57 74.7801Z" fill="#7B70EE"/>
<path d="M152.74 107.44C153.198 107.445 153.64 107.27 153.969 106.952C154.299 106.633 154.489 106.198 154.5 105.74V63.33C154.489 62.872 154.299 62.4366 153.969 62.1184C153.64 61.8001 153.198 61.6246 152.74 61.63C152.282 61.6246 151.84 61.8001 151.511 62.1184C151.181 62.4366 150.99 62.872 150.98 63.33V105.74C150.99 106.198 151.181 106.633 151.511 106.952C151.84 107.27 152.282 107.445 152.74 107.44Z" fill="#2525AD"/>
<path d="M114.3 63.33C112.606 63.3059 110.972 63.9545 109.755 65.1336C108.538 66.3127 107.839 67.926 107.81 69.62V70.62C106.357 75.0357 105.648 79.6619 105.71 84.31C105.649 88.958 106.359 93.5839 107.81 98V99C107.823 99.8392 108.001 100.668 108.335 101.438C108.668 102.208 109.149 102.905 109.752 103.489C110.355 104.073 111.067 104.533 111.847 104.842C112.627 105.151 113.461 105.303 114.3 105.29C119.04 105.29 122.89 95.92 122.89 84.36C122.89 72.8 119 63.33 114.3 63.33Z" fill="#F0C64B"/>
<path d="M120 84.53C120 91.61 119.45 97.34 118.77 97.34C118.09 97.34 117.55 91.61 117.55 84.53C117.55 77.45 118.1 71.73 118.77 71.73C119.44 71.73 120 77.46 120 84.53Z" fill="#D8A32B"/>
<path d="M98.73 74.7801V94.2901C99.17 99.1101 103.61 103.59 109.56 105.2V63.8701C103.61 65.4801 99.17 70.0001 98.73 74.7801Z" fill="#7B70EE"/>
<path d="M109.56 107.44C109.102 107.445 108.66 107.27 108.331 106.952C108.001 106.633 107.811 106.198 107.8 105.74V63.33C107.811 62.872 108.001 62.4366 108.331 62.1184C108.66 61.8001 109.102 61.6246 109.56 61.63C110.018 61.6246 110.46 61.8001 110.789 62.1184C111.119 62.4366 111.31 62.872 111.32 63.33V105.74C111.31 106.198 111.119 106.633 110.789 106.952C110.46 107.27 110.018 107.445 109.56 107.44Z" fill="#2525AD"/>
<path d="M152.9 37.53C149.206 34.699 144.935 32.7123 140.39 31.71C135.883 30.6139 131.217 30.3261 126.61 30.86C125.22 31.02 123.84 31.24 122.48 31.53C121.51 31.6699 120.56 31.925 119.65 32.29C118.74 32.72 117.85 33.19 116.96 33.64L109.68 37.31C109.471 37.4352 109.298 37.6125 109.177 37.8245C109.057 38.0366 108.994 38.2762 108.994 38.52C108.994 38.7638 109.057 39.0035 109.177 39.2155C109.298 39.4276 109.471 39.6049 109.68 39.73C111.907 40.9695 114.503 41.3704 117 40.86C118.745 40.4976 120.455 39.9823 122.11 39.32C125.186 38.2778 128.412 37.7441 131.66 37.74C134.546 37.6722 137.415 38.1963 140.09 39.28C144.01 40.97 148.69 42.1 152.59 39.73C152.775 39.623 152.934 39.4751 153.054 39.2976C153.174 39.1201 153.251 38.9176 153.281 38.7056C153.311 38.4936 153.292 38.2775 153.226 38.0738C153.16 37.8701 153.049 37.6842 152.9 37.53Z" fill="#7B70EE"/>
<path d="M131.76 29.3H131.15H130.54C120.784 29.6168 111.534 33.7148 104.745 40.7279C97.956 47.7409 94.1602 57.1192 94.1602 66.88V89.7C94.1602 90.9157 94.6424 92.0816 95.501 92.9421C96.3596 93.8027 97.5245 94.2874 98.7402 94.2901V71.7901L98.6402 71.21C97.8271 66.6958 97.9396 62.0635 98.971 57.5941C100.002 53.1247 101.931 48.9115 104.64 45.21C107.5 41.3691 111.233 38.2636 115.53 36.1501L115.7 36.07C120.515 33.7306 125.797 32.515 131.15 32.515C136.503 32.515 141.786 33.7306 146.6 36.07L146.77 36.1501C151.086 38.2789 154.833 41.4052 157.7 45.2701C160.408 48.9625 162.336 53.1672 163.367 57.6283C164.399 62.0895 164.512 66.7138 163.7 71.2201L163.6 71.8001V94.3C164.818 94.3 165.985 93.8165 166.846 92.9557C167.707 92.0949 168.19 90.9274 168.19 89.71V66.88C168.19 57.1108 164.387 47.7253 157.587 40.7109C150.787 33.6965 141.525 29.604 131.76 29.3Z" fill="#2525AD"/>
<path d="M409.18 111.09H349.51V197.38H409.18V111.09Z" fill="#D5CBFB"/>
<path d="M402.74 123.75H355.95V125.66H402.74V123.75Z" fill="#7B70EE"/>
<path d="M402.74 132.51H355.95V134.42H402.74V132.51Z" fill="#7B70EE"/>
<path d="M402.74 141.28H355.95V143.19H402.74V141.28Z" fill="#7B70EE"/>
<path d="M402.74 150.05H355.95V151.96H402.74V150.05Z" fill="#7B70EE"/>
<path d="M402.74 158.82H355.95V160.73H402.74V158.82Z" fill="#7B70EE"/>
<path d="M402.74 167.58H355.95V169.49H402.74V167.58Z" fill="#7B70EE"/>
<path d="M402.74 188.88H355.95V189.41H402.74V188.88Z" fill="white"/>
<path d="M362.35 180.59C364.736 181.006 367.166 181.114 369.58 180.91C371.865 180.767 374.117 180.285 376.26 179.48C377.75 178.87 379.36 177.19 378.32 175.48C377.4 173.99 375.11 173.84 373.58 174.2C371.803 174.662 370.239 175.721 369.15 177.2C368.06 178.65 367.31 180.75 368.59 182.32C369.87 183.89 371.94 184.06 373.68 183.82C374.666 183.67 375.613 183.33 376.47 182.82C376.869 182.586 377.247 182.319 377.6 182.02C378.024 181.551 378.566 181.206 379.17 181.02C379.93 180.92 380.1 181.49 380.58 181.9C380.745 182.034 380.936 182.133 381.141 182.189C381.345 182.246 381.56 182.26 381.77 182.23C382.289 182.143 382.794 181.985 383.27 181.76C383.872 181.528 384.515 181.422 385.16 181.45C388 181.52 390.87 181.9 393.71 182.13C394.22 182.13 394.21 181.7 393.71 181.65C391.6 181.48 389.48 181 387.37 180.82C386.402 180.698 385.426 180.652 384.45 180.68C383.597 180.862 382.758 181.106 381.94 181.41C380.94 181.62 380.82 180.63 380.04 180.33C379.693 180.224 379.325 180.201 378.967 180.263C378.609 180.326 378.271 180.472 377.98 180.69C377.26 181.17 376.66 181.81 375.89 182.23C375.013 182.702 374.044 182.978 373.05 183.04C371.45 183.13 369.05 182.65 368.73 180.75C368.42 179.03 369.85 177.24 371.1 176.22C371.734 175.663 372.479 175.247 373.286 175.001C374.093 174.754 374.943 174.682 375.78 174.79C376.58 174.93 377.62 175.31 377.78 176.2C378.01 177.2 377.09 178.08 376.25 178.49C375.242 178.944 374.185 179.279 373.1 179.49C371.929 179.748 370.744 179.932 369.55 180.04C367.223 180.307 364.871 180.28 362.55 179.96C362.05 179.88 361.84 180.43 362.34 180.51L362.35 180.59Z" fill="#7B70EE"/>
<path d="M425.177 151.048L431.216 154.324C431.509 154.481 431.769 154.695 431.979 154.954C432.19 155.212 432.347 155.509 432.442 155.828C432.538 156.147 432.569 156.482 432.535 156.813C432.5 157.145 432.401 157.466 432.242 157.759L429.157 163.446L418.662 157.752L421.747 152.065C422.067 151.475 422.608 151.037 423.251 150.846C423.895 150.655 424.587 150.728 425.177 151.048Z" fill="#D5CBFB"/>
<path d="M428.356 164.833L417.87 159.142L387.566 214.979L398.051 220.67L428.356 164.833Z" fill="#2525AD"/>
<path d="M425.048 162.956L421.303 160.925L391.009 216.767L394.753 218.798L425.048 162.956Z" fill="#1C1C84"/>
<path d="M431.024 162.948L418.041 155.905L416.677 158.419L429.66 165.462L431.024 162.948Z" fill="#F0C64B"/>
<path d="M398.1 220.65L387.61 214.96L386.54 224.47L390.7 226.73L398.1 220.65Z" fill="#D5CBFB"/>
<path d="M390.7 226.73L386.54 224.47L385.85 230.72L390.7 226.73Z" fill="#2525AD"/>
<path d="M54.01 66.51L64.74 77.25" stroke="#7B70EE" stroke-width="2.15" stroke-miterlimit="10"/>
<path d="M64.95 66.51L54.22 77.25" stroke="#7B70EE" stroke-width="2.15" stroke-miterlimit="10"/>
<path d="M415.08 227.5L425.81 238.23" stroke="#7B70EE" stroke-width="2.15" stroke-miterlimit="10"/>
<path d="M426.03 227.5L415.29 238.23" stroke="#7B70EE" stroke-width="2.15" stroke-miterlimit="10"/>
<path d="M23.72 189.88L33.22 199.39" stroke="#2525AD" stroke-width="1.9" stroke-miterlimit="10"/>
<path d="M33.4202 189.88L23.9102 199.39" stroke="#2525AD" stroke-width="1.9" stroke-miterlimit="10"/>
<path d="M18.6801 111.09C18.6801 112.627 18.2242 114.13 17.37 115.408C16.5157 116.686 15.3016 117.682 13.8813 118.27C12.4609 118.857 10.8981 119.011 9.39061 118.71C7.8831 118.409 6.49864 117.668 5.41238 116.581C4.32613 115.493 3.5869 114.108 3.28822 112.6C2.98954 111.092 3.14484 109.529 3.73447 108.11C4.3241 106.69 5.32155 105.477 6.60064 104.625C7.87972 103.772 9.38296 103.318 10.9201 103.32C11.94 103.32 12.9499 103.521 13.8921 103.912C14.8342 104.302 15.6901 104.875 16.4108 105.596C17.1315 106.318 17.7029 107.175 18.0923 108.117C18.4817 109.06 18.6815 110.07 18.6801 111.09Z" stroke="#7B70EE" stroke-width="2.15" stroke-miterlimit="10"/>
<path d="M322.67 105.11C326.961 105.11 330.44 101.631 330.44 97.3401C330.44 93.0488 326.961 89.5701 322.67 89.5701C318.379 89.5701 314.9 93.0488 314.9 97.3401C314.9 101.631 318.379 105.11 322.67 105.11Z" stroke="#7B70EE" stroke-width="2.15" stroke-miterlimit="10"/>
<path d="M358.11 86.51C358.11 86.9056 357.993 87.2922 357.773 87.6211C357.553 87.95 357.241 88.2064 356.875 88.3578C356.51 88.5091 356.108 88.5488 355.72 88.4716C355.332 88.3944 354.976 88.2039 354.696 87.9242C354.416 87.6445 354.226 87.2881 354.149 86.9002C354.071 86.5122 354.111 86.1101 354.262 85.7446C354.414 85.3792 354.67 85.0668 354.999 84.8471C355.328 84.6273 355.715 84.51 356.11 84.51C356.641 84.51 357.149 84.7207 357.524 85.0958C357.899 85.4709 358.11 85.9796 358.11 86.51Z" stroke="#2525AD" stroke-width="1.9" stroke-miterlimit="10"/>
<path d="M167.76 20.6902C167.76 21.0857 167.643 21.4724 167.423 21.8013C167.203 22.1302 166.891 22.3866 166.525 22.5379C166.16 22.6893 165.758 22.7289 165.37 22.6518C164.982 22.5746 164.625 22.3841 164.346 22.1044C164.066 21.8247 163.876 21.4683 163.798 21.0804C163.721 20.6924 163.761 20.2903 163.912 19.9248C164.064 19.5594 164.32 19.247 164.649 19.0272C164.978 18.8075 165.364 18.6902 165.76 18.6902C166.29 18.6902 166.799 18.9009 167.174 19.276C167.549 19.651 167.76 20.1598 167.76 20.6902Z" stroke="#2525AD" stroke-width="1.9" stroke-miterlimit="10"/>
<path d="M41.81 271.19V275.86C38.7711 276.045 35.9162 277.378 33.8236 279.59C31.731 281.801 30.5572 284.725 30.54 287.77V291.77C30.5549 294.896 31.789 297.893 33.9797 300.123C36.1704 302.353 39.1448 303.64 42.27 303.71C43.4415 310.017 46.782 315.716 51.713 319.82C56.644 323.924 62.8549 326.173 69.27 326.18C76.5564 326.177 83.5435 323.281 88.6949 318.128C93.8462 312.974 96.74 305.986 96.74 298.7V271.19H41.81ZM34.4 291.74V287.74C34.4153 285.723 35.1838 283.784 36.5546 282.304C37.9255 280.824 39.7998 279.909 41.81 279.74V298.69C41.81 299.07 41.81 299.44 41.81 299.81C39.7878 299.639 37.9036 298.715 36.5311 297.22C35.1585 295.725 34.3979 293.769 34.4 291.74Z" fill="#2525AD"/>
<path d="M83.08 239.91C81.2959 239.065 79.2964 238.785 77.3487 239.107C75.4011 239.428 73.5979 240.336 72.18 241.71C71.67 237.71 67.86 234.71 63.87 234.07C59.88 233.43 55.81 234.87 52.31 236.88C48.81 238.89 45.66 241.59 44.22 245.28C42.78 248.97 43.58 253.73 46.85 255.97C48.2084 256.856 49.8567 257.182 51.45 256.88C51.6577 258.142 52.192 259.328 53 260.32C54.4335 261.917 56.4397 262.884 58.5822 263.009C60.7246 263.135 62.8299 262.409 64.44 260.99C65.6325 262.012 67.0905 262.675 68.6446 262.902C70.1988 263.128 71.7854 262.909 73.22 262.27C73.8345 261.983 74.4065 261.613 74.92 261.17C74.7236 263.942 73.6759 266.586 71.92 268.74C74.7681 267.757 77.2253 265.885 78.9301 263.401C80.6348 260.917 81.4971 257.951 81.39 254.94C82.7428 254.692 84.0078 254.096 85.0599 253.211C86.1121 252.325 86.9152 251.181 87.39 249.89C87.9269 247.984 87.7915 245.952 87.0066 244.135C86.2217 242.317 84.8352 240.826 83.08 239.91Z" fill="#D5CBFB"/>
<path d="M206.4 75H205.96C204.593 75.0594 203.301 75.6442 202.355 76.6326C201.409 77.621 200.88 78.9366 200.88 80.305C200.88 81.6734 201.409 82.989 202.355 83.9774C203.301 84.9658 204.593 85.5506 205.96 85.61H206.39C207.723 85.5095 208.969 84.9091 209.878 83.929C210.786 82.949 211.292 81.6617 211.292 80.325C211.292 78.9883 210.786 77.701 209.878 76.721C208.969 75.7409 207.723 75.1405 206.39 75.04L206.4 75Z" fill="#2525AD"/>
<path d="M225 80.2501C225 79.3404 224.639 78.4679 223.996 77.8247C223.352 77.1814 222.48 76.8201 221.57 76.8201H219.57L219.37 76.1501C219.122 75.2851 218.787 74.4475 218.37 73.6501L218 73.0001L219.39 71.6001C220.028 70.9543 220.386 70.083 220.386 69.1751C220.386 68.2672 220.028 67.3958 219.39 66.7501C218.744 66.1089 217.871 65.7491 216.96 65.7491C216.05 65.7491 215.176 66.1089 214.53 66.7501L213.14 68.1401L212.53 67.8201C211.732 67.4049 210.894 67.0699 210.03 66.8201L209.36 66.6201V64.6201C209.36 63.8287 209.086 63.0619 208.584 62.4495C208.083 61.8372 207.386 61.4169 206.61 61.2601C206.387 61.2116 206.159 61.1881 205.93 61.1901C205.02 61.1901 204.148 61.5514 203.505 62.1947C202.862 62.8379 202.5 63.7104 202.5 64.6201V66.6201L201.84 66.8201C200.972 67.0681 200.131 67.4031 199.33 67.8201L198.72 68.1401L197.33 66.7501C196.849 66.2734 196.237 65.9495 195.572 65.8191C194.907 65.6888 194.218 65.7577 193.592 66.0172C192.967 66.2768 192.431 66.7154 192.054 67.2781C191.676 67.8408 191.473 68.5024 191.47 69.1801C191.467 69.6297 191.554 70.0755 191.726 70.4912C191.897 70.9068 192.15 71.2838 192.47 71.6001L193.86 73.0001L193.53 73.6101C193.113 74.4075 192.778 75.2451 192.53 76.1101L192.33 76.7801H190.33C189.421 76.7827 188.55 77.1449 187.908 77.7876C187.265 78.4303 186.903 79.3012 186.9 80.2101C186.905 81.1181 187.268 81.9875 187.911 82.6296C188.553 83.2717 189.422 83.6348 190.33 83.6401H192.33L192.53 84.3001C192.778 85.1682 193.113 86.0092 193.53 86.8101L193.86 87.4201L192.47 88.8101C191.827 89.4533 191.466 90.3256 191.466 91.2351C191.466 92.1446 191.827 93.0168 192.47 93.6601C192.788 93.9796 193.166 94.2333 193.582 94.4063C193.998 94.5794 194.444 94.6685 194.895 94.6685C195.346 94.6685 195.792 94.5794 196.208 94.4063C196.624 94.2333 197.002 93.9796 197.32 93.6601L198.71 92.2701L199.32 92.6001C200.121 93.017 200.962 93.352 201.83 93.6001L202.49 93.8001V95.8001C202.485 96.2611 202.572 96.7186 202.747 97.1452C202.922 97.5719 203.18 97.959 203.508 98.2836C203.835 98.6083 204.225 98.8638 204.653 99.0349C205.081 99.2061 205.539 99.2895 206 99.2801C206.225 99.2766 206.449 99.2531 206.67 99.2101H206.77C207.527 99.0356 208.203 98.6091 208.686 98.0005C209.17 97.3919 209.432 96.6372 209.43 95.8601V93.8601L210.1 93.6601C210.964 93.4102 211.802 93.0752 212.6 92.6601L213.21 92.3301L214.6 93.7201C215.243 94.3645 216.116 94.7271 217.027 94.7281C217.937 94.729 218.811 94.3682 219.455 93.7251C220.1 93.0819 220.462 92.2091 220.463 91.2986C220.464 90.3881 220.103 89.5145 219.46 88.8701L218 87.4601L218.32 86.8501C218.737 86.0492 219.072 85.2082 219.32 84.3401L219.52 83.6801H221.52C221.974 83.6853 222.425 83.6006 222.847 83.4307C223.268 83.2608 223.651 83.0092 223.975 82.6903C224.298 82.3714 224.556 81.9915 224.732 81.5727C224.908 81.1539 224.999 80.7043 225 80.2501ZM213.07 86.8101C211.435 88.5948 209.183 89.6921 206.77 89.8801C206.504 89.8955 206.237 89.8955 205.97 89.8801C203.406 89.8801 200.946 88.8613 199.132 87.0478C197.319 85.2343 196.3 82.7747 196.3 80.2101C196.3 77.6454 197.319 75.1858 199.132 73.3723C200.946 71.5589 203.406 70.5401 205.97 70.5401C206.25 70.5401 206.52 70.5401 206.78 70.5401C208.585 70.6919 210.311 71.3476 211.761 72.4324C213.212 73.5173 214.328 74.9876 214.984 76.676C215.639 78.3644 215.807 80.2029 215.469 81.9822C215.131 83.7615 214.3 85.4101 213.07 86.7401V86.8101Z" fill="#2525AD"/>
<path d="M353.23 229.65L353.11 229.91C352.947 230.334 352.868 230.786 352.879 231.241C352.891 231.695 352.991 232.143 353.176 232.559C353.36 232.974 353.624 233.349 353.954 233.663C354.283 233.976 354.671 234.221 355.095 234.385C355.519 234.548 355.971 234.627 356.426 234.616C356.88 234.604 357.328 234.504 357.744 234.319C358.159 234.135 358.534 233.871 358.848 233.541C359.161 233.212 359.407 232.824 359.57 232.4C359.609 232.313 359.639 232.223 359.66 232.13C359.897 231.299 359.814 230.411 359.429 229.638C359.044 228.865 358.383 228.264 357.578 227.953C356.772 227.643 355.879 227.644 355.075 227.958C354.27 228.272 353.612 228.876 353.23 229.65Z" fill="#2525AD"/>
<path d="M360.81 219.56C360.534 219.454 360.24 219.404 359.945 219.413C359.65 219.421 359.359 219.488 359.09 219.61C358.82 219.727 358.576 219.896 358.373 220.109C358.17 220.323 358.013 220.575 357.91 220.85L357.45 222.05H357C356.41 222.012 355.817 222.028 355.23 222.1L354.78 222.15L354.26 220.98C354.019 220.436 353.571 220.011 353.016 219.797C352.461 219.583 351.844 219.599 351.3 219.84C350.756 220.081 350.331 220.529 350.117 221.084C349.903 221.639 349.919 222.256 350.16 222.8L350.68 223.97L350.34 224.27C349.891 224.654 349.482 225.083 349.12 225.55L348.84 225.91L347.65 225.45C347.167 225.266 346.636 225.253 346.145 225.413C345.653 225.573 345.232 225.897 344.95 226.33C344.87 226.456 344.803 226.59 344.75 226.73C344.642 227.005 344.59 227.299 344.597 227.594C344.604 227.889 344.669 228.18 344.789 228.45C344.909 228.72 345.081 228.963 345.296 229.165C345.511 229.368 345.764 229.526 346.04 229.63L347.23 230.09V230.54C347.187 231.13 347.203 231.723 347.28 232.31L347.33 232.76L346.16 233.28C345.754 233.459 345.411 233.755 345.173 234.129C344.935 234.504 344.814 234.94 344.825 235.384C344.836 235.827 344.978 236.257 345.233 236.62C345.489 236.982 345.846 237.261 346.26 237.42C346.811 237.645 347.429 237.645 347.98 237.42L349.15 236.89L349.45 237.24C349.837 237.687 350.265 238.095 350.73 238.46L351.08 238.74L350.62 239.93C350.408 240.486 350.425 241.103 350.667 241.646C350.908 242.19 351.355 242.615 351.91 242.83C352.184 242.936 352.476 242.986 352.77 242.977C353.064 242.969 353.353 242.902 353.62 242.78C353.89 242.664 354.134 242.494 354.337 242.281C354.54 242.068 354.697 241.816 354.8 241.54L355.27 240.35H355.72C356.31 240.393 356.903 240.377 357.49 240.3L357.94 240.25L358.46 241.42C358.701 241.962 359.147 242.386 359.699 242.6C360.252 242.813 360.868 242.799 361.41 242.56C361.684 242.44 361.93 242.267 362.136 242.05C362.342 241.834 362.503 241.578 362.609 241.299C362.715 241.02 362.764 240.722 362.754 240.424C362.744 240.125 362.675 239.832 362.55 239.56L362.03 238.39L362.37 238.09C362.822 237.709 363.231 237.279 363.59 236.81L363.87 236.45L365.07 236.91C365.344 237.017 365.636 237.068 365.929 237.061C366.223 237.054 366.512 236.99 366.781 236.871C367.049 236.752 367.292 236.581 367.494 236.368C367.697 236.155 367.855 235.904 367.96 235.63C368.018 235.496 368.059 235.355 368.08 235.21V235.14C368.149 234.639 368.047 234.128 367.792 233.691C367.536 233.254 367.141 232.916 366.67 232.73L365.47 232.27V231.82C365.53 231.232 365.53 230.639 365.47 230.05L365.41 229.6L366.59 229.08C367.132 228.839 367.556 228.393 367.77 227.84C367.878 227.565 367.93 227.272 367.923 226.976C367.916 226.681 367.851 226.39 367.731 226.121C367.611 225.851 367.439 225.608 367.224 225.405C367.009 225.202 366.756 225.044 366.48 224.94C366.209 224.827 365.919 224.768 365.625 224.768C365.331 224.768 365.041 224.827 364.77 224.94L363.6 225.46L363.3 225.11C362.908 224.668 362.48 224.26 362.02 223.89L361.66 223.62L362.12 222.42C362.319 221.867 362.293 221.258 362.048 220.723C361.803 220.189 361.359 219.771 360.81 219.56ZM362.01 228.37C362.711 229.786 362.85 231.415 362.4 232.93C362.352 233.096 362.296 233.26 362.23 233.42C361.933 234.194 361.486 234.901 360.915 235.502C360.344 236.103 359.661 236.585 358.903 236.922C358.146 237.258 357.33 237.442 356.501 237.464C355.673 237.485 354.849 237.343 354.075 237.045C353.302 236.748 352.594 236.301 351.993 235.73C351.393 235.159 350.91 234.476 350.574 233.718C350.237 232.961 350.053 232.145 350.032 231.317C350.01 230.488 350.153 229.664 350.45 228.89L350.66 228.4C351.35 226.982 352.545 225.873 354.01 225.29C355.487 224.707 357.129 224.699 358.611 225.27C360.093 225.84 361.306 226.947 362.01 228.37Z" fill="#2525AD"/>
</g>
<defs>
<clipPath id="clip0_483_781">
<rect width="432.51" height="350.54" fill="white"/>
</clipPath>
</defs>
</svg>
