<svg width="676" height="231" viewBox="0 0 676 231" fill="none" xmlns="http://www.w3.org/2000/svg">
<path d="M79.9524 125.536C77.7962 124.359 75.1667 125.92 75.1667 128.376V146.17C75.1667 147.354 75.8132 148.444 76.8524 149.011L117.658 171.279C118.624 171.806 119.792 171.806 120.758 171.279L161.564 149.011C162.603 148.444 163.25 147.354 163.25 146.17V128.376C163.25 125.92 160.621 124.359 158.464 125.536L120.758 146.112C119.792 146.64 118.624 146.64 117.658 146.112L79.9524 125.536ZM120.758 59.7201C119.792 59.1934 118.625 59.1933 117.659 59.7201L55.2078 93.7844C52.9594 95.0108 52.9594 98.2392 55.2078 99.4656L117.659 133.53C118.625 134.057 119.792 134.057 120.758 133.53L171.048 106.094C173.204 104.917 175.833 106.478 175.833 108.934V143.723C175.833 145.51 177.282 146.958 179.069 146.958H185.181C186.968 146.958 188.417 145.51 188.417 143.723V98.5458C188.417 97.3617 187.77 96.2722 186.73 95.7052L120.758 59.7201Z" fill="#767BFF"/>
<path d="M274.28 117.556C257.288 117.556 248.168 107.476 248.168 92.5C248.168 78.676 257.192 67.54 273.512 67.54C288.584 67.54 297.704 76.66 297.704 92.02C297.704 93.556 297.512 96.052 297.32 97.3H262.376C263.816 103.732 268.424 106.708 274.088 106.708C279.176 106.708 283.4 104.692 284.648 101.14L296.744 105.268C293.864 113.236 285.224 117.556 274.28 117.556ZM262.28 88.372H284.36C283.208 81.748 278.888 78.196 273.416 78.196C267.56 78.196 263.432 81.46 262.28 88.372ZM325.172 53.14V104.116H357.62V116.5H310.1V53.14H325.172ZM369.802 116.5V53.14H418.378V64.948H384.874V79.444H414.058V90.772H384.874V104.692H419.626V116.5H369.802ZM427.47 116.5L449.647 53.14H467.599L489.774 116.5H474.702L471.151 105.268H445.807L442.159 116.5H427.47ZM449.647 93.172H467.311L461.359 74.644L458.575 64.852H458.383L455.695 74.548L449.647 93.172ZM529.714 53.14C544.594 53.14 554.386 62.74 554.386 75.508C554.386 83.86 550.066 91.444 542.866 95.668L555.058 116.5H538.834L528.85 99.028H515.314V116.5H500.53V53.14H529.714ZM515.314 87.124H527.41C534.802 87.124 539.122 81.748 539.122 75.796C539.122 69.844 534.802 64.66 527.41 64.66H515.314V87.124ZM624.063 53.14V116.5H607.263L586.431 81.364L581.343 71.572H581.151L581.535 82.804V116.5H568.191V53.14H585.087L605.823 88.18L611.007 97.78H611.103L610.719 86.74V53.14H624.063Z" fill="white"/>
<path d="M245.832 177.5L261.455 138.292H265.317L280.881 177.5H277.436L273.099 166.569H253.614L249.277 177.5H245.832ZM254.802 163.54H271.911L264.901 145.837L263.356 141.441H263.297L261.871 145.718L254.802 163.54ZM283.754 162.708C283.754 154.094 290.645 147.144 299.14 147.144C304.546 147.144 309.476 150.054 312.15 154.51L309.655 156.114C307.457 152.49 303.595 150.173 299.14 150.173C292.249 150.173 287.021 155.698 287.021 162.649C287.021 169.599 292.249 174.946 299.14 174.946C303.476 174.946 307.219 172.985 309.476 169.48L312.09 171.025C309.417 175.361 304.546 178.035 299.14 178.035C290.645 178.035 283.754 171.262 283.754 162.708ZM330.548 147.203C337.261 147.203 342.429 150.47 342.429 157.124V172.332V177.797H339.162V172.926C337.024 176.312 331.855 178.094 327.578 178.094C321.34 178.094 317.241 175.005 317.241 170.015C317.241 165.678 320.271 162.767 326.212 161.401C329.063 160.629 332.033 160.213 339.162 159.738V157.48C339.162 152.906 335.598 150.114 330.548 150.114C325.677 150.114 321.934 152.015 320.212 156.233L317.776 154.45C319.439 149.817 323.954 147.203 330.548 147.203ZM320.509 170.015C320.509 173.045 323.479 175.361 327.875 175.361C332.568 175.361 339.162 172.688 339.162 167.936V162.47C332.568 162.946 329.717 163.302 327.34 163.896C322.707 164.847 320.509 166.926 320.509 170.015ZM378.476 134.134V177.5H375.446V170.906C373.664 175.302 369.268 178.035 363.743 178.035C355.605 178.035 349.189 171.916 349.189 162.649C349.189 153.381 355.664 147.262 363.743 147.262C368.971 147.262 373.248 149.936 375.209 153.797V134.134H378.476ZM352.278 162.649C352.278 170.193 357.387 175.064 363.803 175.064C370.278 175.064 375.446 170.431 375.446 162.946V162.351C375.446 154.985 370.278 150.233 363.743 150.233C357.387 150.233 352.278 155.163 352.278 162.649ZM400.959 178.035C392.524 178.035 386.048 172.272 386.048 162.649C386.048 153.738 391.929 147.203 400.662 147.203C408.979 147.203 414.504 153.678 414.504 161.817C414.504 162.708 414.385 163.421 414.325 164.015H389.316C389.91 171.084 394.9 175.243 400.959 175.243C405.236 175.243 409.692 173.282 411.118 169.896L413.791 171.381C411.593 175.54 406.662 178.035 400.959 178.035ZM389.316 161.163H411.355C410.88 154.569 406.662 150.054 400.662 150.054C394.425 150.054 389.91 154.748 389.316 161.163ZM457.761 147.144C463.94 147.144 468.989 150.767 468.989 158.252V177.441H465.722V158.55C465.722 152.787 462.336 149.995 457.464 149.995C451.94 149.995 447.365 154.272 447.365 160.569V177.5H444.098V158.609C444.098 152.847 440.653 150.054 435.781 150.054C430.672 150.054 425.682 153.975 425.682 160.866V177.5H422.415V147.797H425.326L425.504 153.559C427.524 149.401 431.623 147.203 436.138 147.203C440.95 147.203 445.108 149.401 446.653 153.916C448.435 149.579 453.187 147.144 457.761 147.144ZM487.735 182.906C485.477 188.431 482.982 190.272 478.824 190.272C476.21 190.272 474.428 189.559 473.061 188.015L474.309 185.223C475.437 186.946 477.16 187.421 478.824 187.421C481.319 187.421 483.22 186.351 484.942 182.074L486.784 177.5L474.249 147.797H477.992L486.784 169.837L488.329 173.995L490.051 169.421L498.487 147.797H501.992L487.735 182.906Z" fill="white"/>
</svg>
